<?xml version="1.0" standalone="no"?>
<!DOCTYPE svg PUBLIC "-//W3C//DTD SVG 20010904//EN"
 "http://www.w3.org/TR/2001/REC-SVG-20010904/DTD/svg10.dtd">
<svg version="1.0" xmlns="http://www.w3.org/2000/svg"
 width="283.000000pt" height="265.000000pt" viewBox="0 0 283.000000 265.000000"
 preserveAspectRatio="xMidYMid meet">

<g transform="translate(0.000000,265.000000) scale(0.100000,-0.100000)"
fill="#000000" stroke="none">
<path d="M790 2325 l0 -55 55 0 55 0 0 55 0 55 -55 0 -55 0 0 -55z"/>
<path d="M520 2185 l0 -55 55 0 55 0 0 55 0 55 -55 0 -55 0 0 -55z"/>
<path d="M650 2185 l0 -55 55 0 55 0 0 55 0 55 -55 0 -55 0 0 -55z"/>
<path d="M790 2185 l0 -55 55 0 55 0 0 55 0 55 -55 0 -55 0 0 -55z"/>
<path d="M1159 2153 c-15 -17 -19 -127 -6 -154 6 -11 0 -19 -20 -30 -23 -11
-105 -15 -422 -17 l-394 -3 6 -64 c9 -90 40 -157 99 -210 70 -63 128 -80 268
-80 131 0 183 12 285 63 86 44 188 144 230 224 25 49 34 58 57 58 58 0 128 45
128 82 0 24 -42 40 -94 36 -35 -2 -41 1 -46 20 -6 25 -56 92 -69 92 -5 0 -15
-7 -22 -17z"/>
<path d="M1806 2100 c-123 -134 -253 -362 -306 -540 -42 -141 -52 -217 -47
-359 5 -140 17 -216 43 -273 l15 -33 -5 35 c-3 19 -8 67 -11 105 -5 69 -5 69
10 -20 8 -49 24 -121 36 -160 18 -58 23 -66 28 -45 5 19 9 11 18 -38 26 -141
136 -290 321 -439 l107 -85 68 6 c70 6 92 11 267 57 141 37 160 45 160 67 0
29 -29 221 -42 277 -8 39 -24 64 -70 114 -64 71 -135 174 -162 236 -10 22 -21
47 -26 55 -4 9 -11 31 -15 50 -4 19 -11 42 -16 52 -5 10 -13 26 -18 36 -18 37
-33 186 -23 227 9 38 10 36 11 -32 1 -41 5 -73 11 -73 6 0 10 11 10 25 0 35
33 151 60 210 12 28 46 84 75 126 l53 76 -149 6 c-245 11 -288 17 -304 41 -14
21 -29 116 -42 259 -3 37 -9 70 -13 72 -4 2 -24 -13 -44 -35z m139 -590 c19 0
83 -57 90 -79 7 -24 -35 -92 -53 -86 -8 3 -37 5 -67 5 -48 0 -53 2 -57 25 -5
25 -4 25 57 25 56 0 64 3 79 25 9 14 14 29 12 34 -10 15 -63 20 -99 10 -30 -8
-41 -19 -62 -62 -28 -56 -49 -77 -76 -77 -20 0 -49 26 -49 43 0 8 4 7 9 -2 14
-22 38 -6 59 41 30 67 90 113 130 102 8 -2 20 -4 27 -4z m-130 -233 c39 -4 95
-6 125 -5 45 2 55 6 54 20 -1 14 2 15 17 8 29 -16 31 -27 11 -59 -13 -21 -22
-27 -29 -20 -12 12 -206 8 -238 -5 -18 -7 -18 -6 -2 4 17 11 16 13 -8 41 -14
17 -25 40 -25 52 0 21 1 21 13 -3 11 -22 22 -26 82 -33z m206 -117 c23 -13 24
-24 3 -44 -11 -12 -36 -16 -96 -16 -68 0 -79 -2 -74 -16 6 -17 -6 -12 -37 14
-16 15 -16 16 3 37 18 20 25 21 74 12 56 -10 111 -3 101 13 -8 13 1 13 26 0z
m-257 -19 c17 -18 17 -20 -1 -29 -24 -12 -43 -5 -43 17 0 35 19 40 44 12z
m265 -142 c-5 -10 -14 -19 -19 -19 -15 0 -12 -21 6 -41 15 -16 14 -20 -2 -48
-14 -24 -21 -28 -36 -20 -27 14 -134 7 -130 -8 3 -16 -3 -16 -29 -3 -23 13
-24 24 -3 44 11 12 35 16 88 16 50 0 77 4 85 14 21 25 -12 38 -89 35 -56 -2
-75 1 -88 15 -16 16 -16 18 3 29 12 6 52 10 98 8 65 -2 77 0 77 13 0 15 2 15
25 0 20 -13 23 -20 14 -35z m-40 -226 l48 -46 -23 -35 -24 -34 -110 1 c-70 1
-118 -2 -132 -10 -21 -11 -22 -11 -10 4 12 14 11 20 -2 39 -21 30 -20 41 3 28
11 -5 38 -10 61 -10 l42 0 -20 33 -19 33 31 22 c19 13 46 22 68 22 32 0 46 -8
87 -47z"/>
<path d="M1867 765 c-49 -28 -32 -50 40 -53 55 -3 63 0 73 19 15 28 3 39 -46
45 -24 3 -50 -2 -67 -11z"/>
<path d="M380 2045 l0 -55 55 0 55 0 0 55 0 55 -55 0 -55 0 0 -55z"/>
<path d="M520 2045 l0 -55 55 0 55 0 0 55 0 55 -55 0 -55 0 0 -55z"/>
<path d="M650 2045 l0 -55 55 0 55 0 0 55 0 55 -55 0 -55 0 0 -55z"/>
<path d="M790 2045 l0 -55 55 0 55 0 0 55 0 55 -55 0 -55 0 0 -55z"/>
<path d="M920 2045 l0 -55 55 0 55 0 0 55 0 55 -55 0 -55 0 0 -55z"/>
</g>
</svg>
