<?xml version="1.0" standalone="no"?>
<!DOCTYPE svg PUBLIC "-//W3C//DTD SVG 20010904//EN"
 "http://www.w3.org/TR/2001/REC-SVG-20010904/DTD/svg10.dtd">
<svg version="1.0" xmlns="http://www.w3.org/2000/svg"
 width="367.000000pt" height="316.000000pt" viewBox="0 0 367.000000 316.000000"
 preserveAspectRatio="xMidYMid meet">

<g transform="translate(0.000000,316.000000) scale(0.100000,-0.100000)"
fill="#000000" stroke="none">
<path d="M801 3094 c-80 -21 -144 -60 -205 -124 -61 -64 -90 -114 -111 -197
-51 -195 43 -405 225 -502 82 -44 90 -42 90 19 l0 50 -34 0 c-56 0 -84 17
-116 69 -17 27 -37 52 -45 55 -22 8 -18 26 6 26 12 0 40 -20 65 -45 37 -39 49
-45 84 -45 36 0 41 3 53 33 8 17 11 33 8 34 -3 1 -25 7 -49 13 -114 29 -177
177 -122 285 12 23 20 59 20 86 0 51 7 79 20 79 5 0 30 -10 57 -21 40 -18 67
-21 168 -21 101 0 127 3 165 21 25 11 50 21 56 21 15 0 24 -33 24 -85 0 -23 9
-58 20 -80 36 -70 22 -169 -32 -231 -21 -24 -47 -39 -87 -51 l-57 -17 12 -36
c7 -19 13 -70 14 -112 0 -92 3 -94 90 -47 217 115 301 382 189 601 -30 58
-119 150 -177 181 -101 55 -224 70 -331 41z"/>
<path d="M1497 2223 c-11 -11 -8 -58 7 -101 13 -37 13 -44 -5 -81 -23 -49 -25
-118 -3 -150 9 -13 40 -34 68 -47 53 -24 46 -31 -13 -14 l-33 9 4 -42 c3 -23
17 -109 32 -190 25 -137 26 -151 12 -172 -9 -14 -16 -36 -16 -49 0 -31 32 -42
93 -31 48 8 66 8 124 -1 23 -3 57 -1 75 5 22 7 73 7 148 2 126 -9 192 2 225
39 26 29 13 86 -26 108 -27 16 -29 20 -29 84 0 175 -69 285 -211 335 -44 16
-49 21 -73 81 -22 57 -24 67 -12 91 8 14 17 40 20 58 10 45 -20 61 -69 37 -19
-8 -39 -22 -45 -29 -8 -10 -31 -12 -88 -8 -69 5 -81 9 -115 39 -36 33 -57 41
-70 27z m197 -232 c3 -4 -1 -16 -8 -26 -13 -18 -14 -18 -25 2 -8 16 -8 23 2
26 19 8 25 8 31 -2z m-37 -177 c-3 -3 -12 -4 -19 -1 -8 3 -5 6 6 6 11 1 17 -2
13 -5z"/>
<path d="M2300 1160 c98 -6 217 -27 207 -36 -2 -3 -28 1 -58 7 -76 17 -552 -6
-664 -31 -212 -49 -512 -190 -633 -299 l-41 -36 9 -70 c4 -38 13 -117 20 -175
7 -58 17 -108 22 -111 6 -4 120 -10 253 -14 l242 -7 79 45 c43 24 113 57 154
72 41 14 120 44 175 65 111 43 187 60 225 49 24 -7 24 -7 -5 -8 -16 -1 -50 -8
-75 -15 -45 -15 -45 -15 66 -15 224 -2 399 -43 591 -139 40 -20 75 -34 78 -31
2 3 0 50 -5 105 -5 54 -10 132 -10 171 0 64 3 74 23 87 26 17 183 50 324 67
56 7 100 16 98 19 -7 12 -179 108 -241 136 -134 60 -340 124 -396 124 -17 0
-10 -8 32 -31 30 -16 64 -39 75 -51 14 -14 1 -10 -45 15 -144 79 -320 119
-510 115 l-95 -2 105 -6z m-138 -122 c-20 -20 -14 -28 33 -49 24 -11 58 -31
74 -45 57 -48 50 -141 -15 -190 l-34 -27 -45 24 c-29 15 -41 27 -35 33 6 6 10
36 10 68 0 32 4 58 9 58 5 0 15 2 23 5 10 4 12 -8 10 -57 -3 -61 -2 -64 26
-79 38 -22 52 -9 52 47 0 50 -19 76 -80 108 -25 13 -52 35 -60 49 -13 23 -13
28 4 46 11 12 24 21 30 21 6 0 5 -5 -2 -12z m-93 -114 c37 -69 33 -98 -21
-150 l-46 -44 -39 25 -38 25 5 76 5 76 50 18 c28 9 52 18 55 19 3 0 16 -19 29
-45z m-181 11 c16 -35 15 -42 -7 -48 -14 -3 -23 3 -32 24 -16 40 -39 21 -39
-33 0 -62 24 -107 60 -115 l31 -6 -31 -18 c-24 -15 -34 -17 -49 -7 -73 46 -65
187 13 218 34 14 42 12 54 -15z m565 -10 c9 -20 17 -39 17 -44 0 -5 -20 -16
-45 -25 -29 -12 -45 -24 -45 -35 0 -25 37 -61 63 -61 19 0 18 -3 -11 -22 l-34
-21 -30 30 c-56 56 -47 155 16 194 43 26 50 24 69 -16z"/>
<path d="M1980 871 c0 -60 3 -72 22 -85 51 -36 66 47 22 114 -15 22 -31 40
-35 40 -5 0 -9 -31 -9 -69z"/>
<path d="M2381 922 c-14 -26 -14 -72 0 -72 6 0 19 5 29 10 17 9 18 14 8 38
-18 41 -25 46 -37 24z"/>
</g>
</svg>
