<?xml version="1.0" standalone="no"?>
<!DOCTYPE svg PUBLIC "-//W3C//DTD SVG 20010904//EN"
 "http://www.w3.org/TR/2001/REC-SVG-20010904/DTD/svg10.dtd">
<svg version="1.0" xmlns="http://www.w3.org/2000/svg"
 width="428.000000pt" height="308.000000pt" viewBox="0 0 428.000000 308.000000"
 preserveAspectRatio="xMidYMid meet">

<g transform="translate(0.000000,308.000000) scale(0.100000,-0.100000)"
fill="#000000" stroke="none">
<path d="M3025 2912 c-100 -47 -139 -164 -89 -263 17 -34 68 -77 100 -85 24
-6 24 -7 24 -143 0 -75 5 -154 11 -175 14 -51 55 -92 107 -106 27 -7 42 -17
42 -26 0 -27 64 -82 104 -89 51 -10 105 12 134 55 50 73 8 177 -80 201 -58 15
-123 -16 -146 -71 -15 -35 -20 -40 -42 -35 -14 4 -38 20 -55 36 -29 29 -30 32
-33 145 l-4 115 31 -15 c16 -9 43 -16 58 -16 24 0 31 -6 42 -35 14 -39 51 -69
99 -80 50 -10 116 26 139 76 15 35 21 39 53 39 32 0 37 -4 49 -35 17 -48 64
-79 120 -79 79 0 131 52 131 131 0 137 -188 181 -247 58 -14 -30 -22 -35 -52
-35 -31 0 -39 5 -58 39 -54 94 -185 90 -232 -7 -19 -38 -55 -42 -95 -11 -37
29 -33 43 18 58 113 33 168 160 116 267 -42 85 -159 127 -245 86z m153 -42
c127 -78 74 -280 -73 -280 -82 0 -155 71 -155 150 0 47 38 109 80 131 45 25
107 24 148 -1z m233 -349 c56 -56 27 -145 -52 -157 -30 -5 -41 -2 -67 22 -45
42 -47 96 -6 138 37 37 86 35 125 -3z m322 17 c34 -17 46 -39 47 -80 0 -49
-33 -87 -82 -95 -32 -5 -41 -1 -68 25 -78 78 7 202 103 150z m-343 -303 c89
-46 55 -175 -46 -175 -38 0 -64 18 -79 54 -21 51 1 106 50 127 30 12 43 11 75
-6z"/>
<path d="M3041 2826 c-8 -9 -11 -43 -9 -92 4 -104 15 -111 99 -58 88 55 89 72
7 124 -69 44 -80 47 -97 26z m107 -84 c3 -10 -61 -52 -79 -52 -5 0 -9 25 -9
56 l0 55 42 -25 c24 -14 44 -30 46 -34z"/>
<path d="M3355 2480 c-12 -13 -25 -18 -40 -14 -35 9 -41 -15 -12 -44 l26 -25
41 41 c39 39 45 62 16 62 -7 0 -21 -9 -31 -20z"/>
<path d="M3695 2480 c-12 -13 -25 -18 -40 -14 -13 3 -26 0 -30 -6 -9 -14 23
-50 45 -50 21 0 84 65 76 79 -11 17 -31 13 -51 -9z"/>
<path d="M3297 2163 c-13 -12 -7 -23 13 -23 11 0 20 7 20 15 0 15 -21 21 -33
8z"/>
<path d="M3370 2156 c0 -8 4 -17 9 -20 11 -7 33 18 24 27 -12 12 -33 7 -33 -7z"/>
<path d="M2329 2373 c-8 -9 -15 -42 -16 -76 l-1 -60 -64 -18 c-34 -9 -72 -20
-83 -23 -15 -5 -26 3 -48 34 -26 39 -71 70 -83 57 -12 -12 7 -77 31 -106 31
-36 31 -42 0 -71 -33 -31 -32 -40 8 -40 21 0 41 8 52 20 49 54 120 81 217 81
76 0 139 -22 201 -72 27 -22 46 -29 69 -27 l31 3 -26 31 c-26 31 -26 32 -7 49
27 24 63 102 56 120 -3 8 -11 15 -19 15 -18 0 -73 -56 -89 -90 l-12 -28 -46
23 c-25 13 -63 26 -83 30 l-37 7 0 60 c0 85 -21 118 -51 81z"/>
<path d="M3654 2279 c-37 -11 -82 -53 -90 -86 -4 -14 -14 -23 -25 -23 -25 0
-25 -30 0 -37 10 -2 25 -20 34 -38 60 -126 247 -78 247 62 0 33 -7 50 -31 77
-39 45 -83 60 -135 45z m104 -65 c25 -28 30 -88 9 -115 -54 -71 -167 -38 -167
48 0 92 99 134 158 67z"/>
<path d="M2158 1983 c-16 -4 -18 -18 -18 -114 l0 -109 70 0 c68 0 70 1 70 25
0 23 -4 25 -40 25 -33 0 -40 3 -40 20 0 16 7 20 35 20 31 0 35 3 35 25 0 22
-4 25 -35 25 -28 0 -35 4 -35 20 0 17 7 20 41 20 36 0 40 2 37 23 -3 19 -9 22
-53 24 -27 0 -58 -1 -67 -4z"/>
<path d="M2717 1950 c-24 -22 -47 -40 -51 -40 -4 0 -27 16 -50 35 -24 19 -48
35 -55 35 -7 0 -11 -34 -11 -110 l0 -110 25 0 c24 0 25 3 25 55 0 30 3 55 7
55 4 0 17 -10 30 -22 l23 -22 30 22 30 23 0 -56 c0 -54 0 -55 30 -55 l30 0 0
109 c0 61 -4 113 -10 116 -5 3 -29 -12 -53 -35z"/>
<path d="M1890 1870 c0 -110 0 -110 24 -110 22 0 25 5 28 43 3 39 5 42 35 45
31 3 32 2 35 -40 3 -39 6 -43 31 -46 l27 -3 0 110 0 111 -30 0 c-28 0 -30 -3
-30 -34 0 -40 -11 -50 -46 -42 -20 5 -24 13 -24 41 0 31 -3 35 -25 35 l-25 0
0 -110z"/>
<path d="M2342 1873 l3 -108 68 -3 67 -3 0 31 c0 28 -2 30 -40 30 l-40 0 0 80
0 80 -30 0 -31 0 3 -107z"/>
<path d="M2063 1642 c15 -15 27 -32 27 -36 0 -4 -11 -22 -25 -41 -32 -41 -45
-105 -22 -105 21 0 69 42 87 75 11 20 19 25 35 20 11 -4 49 -15 85 -25 l64
-17 -3 -42 c-3 -50 15 -111 34 -111 23 0 35 35 35 98 l0 60 37 7 c20 3 56 16
80 27 24 11 45 19 46 17 43 -66 62 -88 83 -99 55 -30 55 31 -2 105 -32 42 -32
44 -13 61 10 9 19 21 19 26 0 18 -63 7 -94 -17 -61 -46 -123 -67 -201 -67 -81
1 -130 17 -187 62 -26 21 -48 30 -74 30 l-38 0 27 -28z"/>
<path d="M1600 1245 c-8 -2 -49 -9 -90 -15 -80 -13 -235 -51 -307 -75 -195
-67 -452 -210 -592 -333 l-44 -38 139 -12 c156 -15 290 -30 317 -38 15 -5 17
-23 17 -194 l0 -189 73 52 c83 59 189 118 297 164 59 25 69 32 50 35 -18 3 -7
8 35 16 127 27 125 26 60 33 -33 3 58 6 203 7 145 1 282 -2 305 -7 23 -6 76
-18 117 -27 41 -9 122 -37 180 -61 57 -24 111 -41 118 -38 8 3 100 10 205 15
105 5 194 13 198 17 5 5 11 92 15 194 l7 186 -103 58 c-209 117 -389 183 -648
234 -76 16 -265 13 -347 -4 -88 -19 -94 -18 -25 5 l55 18 -110 0 c-60 0 -117
-2 -125 -3z m-228 -158 c-16 -18 -3 -33 45 -52 60 -24 103 -76 103 -123 0 -68
-72 -150 -109 -124 -9 7 -29 18 -45 26 -17 8 -24 16 -17 20 6 4 11 33 11 67 0
32 4 59 9 59 5 0 16 3 25 6 14 5 16 -4 16 -59 0 -59 2 -66 26 -82 33 -22 44
-9 44 54 0 43 -28 91 -52 91 -20 0 -86 50 -91 69 -5 21 17 61 35 61 7 0 7 -4
0 -13z m648 0 c-24 -12 -25 -16 -28 -131 -3 -129 4 -152 38 -121 16 15 20 31
20 84 l0 66 54 16 54 16 26 -51 c14 -28 26 -58 26 -66 -1 -24 -22 -54 -62 -89
l-36 -32 -38 26 -39 26 -25 -30 -25 -30 -24 19 c-22 19 -23 25 -22 139 1 74
-2 122 -8 126 -6 3 -11 12 -11 18 0 7 5 4 11 -6 11 -18 12 -18 32 1 24 21 43
30 67 31 8 0 4 -5 -10 -12z m-285 -47 c-4 -6 7 -23 22 -39 l29 -29 28 20 c15
11 28 19 30 17 1 -2 12 -17 24 -33 15 -19 22 -43 22 -72 0 -37 -6 -51 -37 -85
-24 -27 -43 -39 -55 -36 -14 4 -19 -3 -24 -32 -11 -66 -17 -67 -28 -1 -9 53
-14 64 -28 62 -26 -4 -23 29 3 35 19 5 21 11 17 59 -3 32 -12 62 -23 74 -17
18 -17 21 -1 45 15 23 35 37 21 15z m529 -5 c-4 -10 3 -18 19 -24 14 -5 27
-15 29 -22 3 -9 12 -7 32 6 28 18 29 18 43 -1 61 -79 53 -144 -25 -226 -30
-32 -59 -58 -65 -58 -5 0 9 18 31 39 45 44 58 85 49 152 -6 46 -32 80 -53 72
-10 -4 -14 -25 -14 -79 0 -63 2 -74 17 -74 15 0 15 -3 -4 -21 -20 -20 -22 -20
-47 -4 -19 13 -24 21 -17 28 17 17 14 132 -4 147 -18 15 -20 51 -3 68 16 16
19 15 12 -3z m-594 -62 c8 -21 16 -40 18 -43 1 -3 -20 -14 -48 -24 -27 -10
-50 -20 -50 -21 0 -23 26 -59 51 -69 l30 -13 -25 -17 c-24 -15 -28 -15 -49 -1
-32 21 -47 57 -47 111 0 39 5 51 34 80 45 45 68 44 86 -3z m-260 -383 c-34
-11 -60 -11 -35 0 11 5 29 8 40 8 16 0 15 -2 -5 -8z"/>
<path d="M2097 984 c-4 -4 -7 -35 -7 -70 0 -55 3 -64 25 -78 31 -21 31 -21 44
13 10 23 9 35 -3 62 -19 44 -50 82 -59 73z"/>
<path d="M1787 963 c-4 -3 -7 -32 -7 -64 0 -49 3 -59 25 -73 23 -15 25 -15 35
3 16 31 12 81 -11 112 -21 29 -30 34 -42 22z"/>
<path d="M1596 974 c-3 -9 -6 -29 -6 -45 0 -27 3 -30 23 -23 31 9 30 8 16 48
-14 39 -23 45 -33 20z"/>
</g>
</svg>
