<?xml version="1.0" standalone="no"?>
<!DOCTYPE svg PUBLIC "-//W3C//DTD SVG 20010904//EN"
 "http://www.w3.org/TR/2001/REC-SVG-20010904/DTD/svg10.dtd">
<svg version="1.0" xmlns="http://www.w3.org/2000/svg"
 width="427.000000pt" height="322.000000pt" viewBox="0 0 427.000000 322.000000"
 preserveAspectRatio="xMidYMid meet">

<g transform="translate(0.000000,322.000000) scale(0.100000,-0.100000)"
fill="#000000" stroke="none">
<path d="M815 2820 c-33 -4 -127 -12 -210 -20 -82 -7 -156 -17 -162 -23 -14
-10 -19 -266 -7 -326 12 -60 172 -169 345 -235 72 -28 68 -35 -5 -10 -26 9
-49 14 -52 11 -3 -2 31 -26 76 -51 214 -124 446 -206 705 -252 139 -24 368
-24 453 -1 35 10 71 15 81 12 20 -6 102 21 181 59 30 15 46 19 35 10 -11 -9
-47 -29 -80 -45 -70 -33 -68 -34 20 -14 104 25 268 81 363 125 98 46 225 120
218 127 -3 3 -65 13 -138 23 -129 18 -205 31 -278 48 -41 9 -40 -3 -23 232 6
80 10 146 8 148 -1 1 -44 -18 -96 -42 -52 -24 -128 -54 -169 -66 -81 -24 -238
-49 -309 -50 -59 0 -48 -8 35 -24 38 -8 57 -15 42 -15 -35 -1 -162 24 -218 43
-53 18 -66 13 -19 -8 22 -10 25 -14 9 -10 -14 4 -50 18 -80 32 -30 13 -92 37
-137 53 -119 41 -254 112 -365 191 -54 39 -100 74 -104 79 -6 10 -27 10 -119
-1z m133 -301 c31 16 41 14 54 -14 10 -22 13 -23 37 -11 24 13 28 11 54 -15
16 -16 24 -29 18 -29 -11 0 -41 -95 -41 -130 0 -11 5 -18 10 -15 6 3 10 2 10
-2 0 -5 -9 -14 -21 -21 -16 -10 -24 -10 -35 -1 -18 15 -18 41 1 104 21 68 7
121 -22 83 -13 -18 -33 -90 -33 -120 0 -15 -9 -32 -22 -41 -22 -13 -24 -13
-33 11 -9 20 -7 33 7 62 10 20 19 54 21 76 2 33 -1 39 -18 39 -14 0 -23 -12
-32 -45 -8 -25 -14 -58 -15 -73 -1 -16 -10 -34 -22 -42 -18 -14 -21 -13 -32 8
-7 12 -9 26 -4 32 13 17 41 125 35 136 -4 5 -12 6 -18 3 -7 -4 -1 5 13 20 l25
27 21 -26 c18 -23 25 -25 42 -16z m340 -110 c25 -80 9 -116 -67 -152 l-46 -23
-33 35 c-18 19 -28 37 -23 40 5 4 17 35 26 71 l16 65 58 1 57 1 12 -38z m380
9 c4 -21 -36 -44 -50 -30 -14 14 9 54 30 50 9 -2 18 -11 20 -20z m-263 -26
c11 -25 18 -27 47 -11 17 9 25 7 46 -14 18 -19 23 -30 15 -39 -12 -17 -33 -89
-33 -117 0 -11 5 -21 12 -21 7 0 2 -10 -10 -22 -23 -23 -23 -23 -38 -4 -18 25
-18 43 3 116 17 64 10 89 -21 77 -15 -6 -37 -71 -40 -117 0 -14 -10 -33 -21
-42 -19 -16 -21 -15 -33 8 -9 17 -10 29 -4 37 6 7 17 38 25 70 14 51 14 59 1
64 -13 5 -12 8 2 24 21 23 36 20 49 -9z m222 -55 c9 -18 7 -36 -8 -78 -21 -62
-24 -99 -7 -99 6 0 3 -9 -7 -20 -24 -26 -33 -25 -46 4 -9 19 -7 41 6 97 15 59
16 74 5 77 -9 3 -5 11 11 23 31 24 34 24 46 -4z m165 0 c-26 -27 -28 -47 -7
-47 8 0 15 -6 15 -14 0 -8 -8 -12 -23 -9 -21 4 -24 -1 -34 -44 -7 -26 -15 -56
-19 -66 -5 -13 -1 -20 15 -24 20 -5 20 -6 -4 -25 l-25 -20 -24 23 c-15 14 -21
28 -16 34 7 9 40 122 40 139 0 3 -8 6 -17 6 -17 0 92 68 111 69 5 1 0 -9 -12
-22z m167 -119 c17 -73 6 -99 -61 -135 l-54 -29 -31 34 c-29 31 -30 35 -17 60
8 15 14 32 14 37 0 6 5 27 11 48 l10 37 58 0 58 0 12 -52z m113 -3 c10 -23 13
-24 33 -11 13 8 25 12 29 9 10 -11 7 -48 -6 -61 -18 -18 -28 -15 -28 9 0 35
-24 15 -38 -32 -15 -53 -12 -85 8 -81 9 2 6 -6 -9 -22 l-25 -26 -28 27 c-19
18 -25 30 -18 38 11 13 40 102 40 123 0 6 -7 12 -17 12 -14 0 -14 2 2 20 24
27 43 25 57 -5z m8 -275 c-8 -5 -22 -9 -30 -9 -10 0 -8 3 5 9 27 12 43 12 25
0z"/>
<path d="M1188 2365 c-14 -60 -14 -66 2 -80 22 -20 37 -19 50 4 20 38 1 141
-25 141 -6 0 -18 -29 -27 -65z"/>
<path d="M1877 2253 c-3 -4 -12 -35 -21 -68 -15 -58 -15 -61 5 -80 l20 -20 20
24 c22 27 24 53 8 102 -14 39 -25 54 -32 42z"/>
<path d="M2659 1761 c-15 -11 -32 -33 -38 -49 -16 -38 -67 -57 -156 -58 -39 0
-76 -4 -83 -8 -18 -11 -15 -87 6 -126 24 -48 9 -107 -36 -145 -18 -15 -40 -41
-49 -58 -16 -31 -15 -31 18 -59 19 -16 50 -33 69 -39 47 -14 84 -67 76 -106
-3 -15 -2 -41 2 -58 8 -27 12 -30 43 -26 19 1 46 9 60 16 35 19 137 9 164 -16
11 -10 32 -22 48 -28 25 -10 29 -8 47 22 11 17 20 39 20 47 1 22 75 100 95
100 27 0 55 20 55 39 0 10 -9 30 -20 44 -11 14 -20 40 -20 59 0 86 -83 177
-169 186 -66 6 -93 -2 -136 -39 -44 -39 -60 -92 -43 -145 22 -67 106 -105 154
-70 17 14 16 15 -23 13 -75 -2 -113 58 -81 128 36 78 156 68 199 -18 34 -66 5
-153 -67 -198 -29 -17 -46 -21 -98 -17 -79 5 -133 38 -172 103 -35 60 -41 117
-20 189 21 70 84 139 142 155 49 14 128 14 175 1 52 -14 125 -83 159 -149 23
-44 29 -51 29 -31 1 41 -17 93 -50 145 -18 28 -33 63 -34 78 -2 15 -6 31 -10
35 -4 4 -38 7 -76 7 l-68 0 -43 48 -43 49 -26 -21z"/>
<path d="M3525 1706 c-69 -22 -120 -53 -163 -100 -65 -70 -85 -125 -86 -226
-1 -74 3 -93 27 -142 36 -73 119 -150 189 -175 82 -28 198 -24 269 10 67 32
142 108 172 175 18 40 22 70 25 208 4 181 -2 209 -61 244 -28 18 -50 20 -182
19 -92 0 -166 -5 -190 -13z m202 -208 c41 -19 123 -98 123 -118 0 -20 -70 -87
-116 -111 -71 -36 -181 -35 -245 3 -50 29 -109 90 -109 112 0 21 39 65 84 94
84 54 175 61 263 20z"/>
<path d="M3495 1472 c-33 -20 -95 -81 -95 -93 0 -14 91 -88 123 -98 l31 -11
-28 29 c-41 43 -46 104 -12 154 28 42 25 45 -19 19z"/>
<path d="M3705 1464 c45 -48 42 -118 -8 -173 -21 -23 -20 -23 31 5 53 28 92
66 92 88 0 17 -58 70 -97 90 -43 22 -46 20 -18 -10z"/>
<path d="M3555 1435 c-25 -24 -34 -65 -16 -65 6 0 16 12 23 28 7 15 23 31 36
37 28 12 29 25 2 25 -12 0 -32 -11 -45 -25z"/>
<path d="M3590 1395 c-11 -13 -11 -18 2 -31 20 -20 50 -7 46 20 -4 26 -30 32
-48 11z"/>
<path d="M1607 1669 c-101 -24 -199 -105 -242 -201 -83 -184 -5 -389 180 -475
51 -23 73 -28 145 -28 77 0 92 3 152 33 82 40 148 111 179 190 30 78 30 186 0
263 -62 162 -245 258 -414 218z m86 -71 c8 -46 31 -126 40 -134 4 -4 7 4 7 19
0 14 5 38 11 54 10 27 10 27 35 -32 41 -95 47 -135 31 -184 -14 -38 -13 -41 2
-37 9 3 34 8 55 12 l39 7 -24 -44 -24 -44 -172 -3 -172 -2 -25 37 c-15 21 -26
41 -26 46 0 8 36 4 82 -9 16 -5 16 -3 3 30 -20 46 -19 65 5 133 11 32 20 68
20 81 0 37 26 10 35 -36 l8 -37 12 35 c8 19 14 50 14 68 1 36 16 72 30 72 5 0
11 -15 14 -32z m167 -448 l0 -30 -170 0 -170 0 0 30 0 30 170 0 170 0 0 -30z
m-70 -74 c0 -26 -59 -66 -96 -66 -57 0 -104 32 -104 71 0 5 45 9 100 9 79 0
100 -3 100 -14z"/>
<path d="M3170 795 l-34 -35 104 -105 c58 -58 109 -105 115 -105 13 0 75 62
75 74 0 16 -194 206 -210 206 -9 0 -31 -16 -50 -35z"/>
<path d="M2010 803 c1 -47 98 -497 108 -501 7 -2 12 1 12 7 0 6 7 8 16 4 14
-5 16 -2 11 18 -3 13 -25 120 -48 237 -39 196 -57 253 -60 185 -1 -20 -4 -14
-11 20 -10 45 -28 65 -28 30z m47 -115 c-3 -7 -5 -2 -5 12 0 14 2 19 5 13 2
-7 2 -19 0 -25z m21 -88 c0 -22 -1 -22 -8 5 -4 17 -8 39 -8 50 0 16 2 15 8 -5
4 -14 8 -36 8 -50z m9 -62 c-3 -7 -5 -2 -5 12 0 14 2 19 5 13 2 -7 2 -19 0
-25z m10 -50 c-3 -7 -5 -2 -5 12 0 14 2 19 5 13 2 -7 2 -19 0 -25z m21 -83 c0
-16 -2 -15 -8 5 -4 14 -8 34 -8 45 0 16 2 15 8 -5 4 -14 8 -34 8 -45z m9 -67
c-3 -7 -5 -2 -5 12 0 14 2 19 5 13 2 -7 2 -19 0 -25z"/>
<path d="M1970 719 c0 -11 -4 -18 -9 -14 -5 3 -12 2 -14 -2 -3 -5 14 -100 37
-213 41 -203 42 -205 66 -202 14 2 26 5 27 5 1 2 -37 195 -78 395 -10 51 -29
72 -29 31z m7 -61 c-3 -7 -5 -2 -5 12 0 14 2 19 5 13 2 -7 2 -19 0 -25z m10
-50 c-3 -7 -5 -2 -5 12 0 14 2 19 5 13 2 -7 2 -19 0 -25z m21 -83 c0 -16 -2
-15 -8 5 -4 14 -8 34 -8 45 0 16 2 15 8 -5 4 -14 8 -34 8 -45z m9 -67 c-3 -7
-5 -2 -5 12 0 14 2 19 5 13 2 -7 2 -19 0 -25z m31 -138 c0 -14 -6 2 -14 35 -7
33 -13 67 -12 75 1 23 26 -82 26 -110z"/>
<path d="M2147 724 c-3 -4 -4 -20 -2 -38 4 -23 3 -25 -3 -8 -7 23 -29 31 -25
9 5 -34 65 -335 69 -349 7 -23 21 -23 27 0 4 16 5 16 6 0 1 -20 21 -25 21 -5
0 23 -73 382 -80 390 -3 4 -9 4 -13 1z m10 -106 c-3 -7 -5 -2 -5 12 0 14 2 19
5 13 2 -7 2 -19 0 -25z m10 -50 c-3 -7 -5 -2 -5 12 0 14 2 19 5 13 2 -7 2 -19
0 -25z m10 -50 c-3 -7 -5 -2 -5 12 0 14 2 19 5 13 2 -7 2 -19 0 -25z m10 -50
c-3 -7 -5 -2 -5 12 0 14 2 19 5 13 2 -7 2 -19 0 -25z m10 -50 c-3 -7 -5 -2 -5
12 0 14 2 19 5 13 2 -7 2 -19 0 -25z m10 -50 c-3 -7 -5 -2 -5 12 0 14 2 19 5
13 2 -7 2 -19 0 -25z"/>
<path d="M3057 632 c-31 -32 -57 -62 -57 -68 0 -5 17 -26 38 -47 28 -27 41
-34 52 -27 24 15 93 12 119 -6 21 -15 24 -15 52 12 16 15 29 33 29 39 0 16
-143 155 -161 155 -8 0 -40 -26 -72 -58z"/>
<path d="M2907 422 c-42 -42 -77 -82 -77 -88 0 -5 23 -32 50 -59 l50 -49 51
49 c45 44 50 54 45 83 -3 18 0 46 6 63 9 26 7 33 -13 55 -12 13 -25 24 -28 24
-4 0 -41 -35 -84 -78z"/>
<path d="M3090 440 c-50 -50 -15 -134 56 -134 45 0 74 31 74 78 0 65 -85 101
-130 56z m88 -52 c5 -39 -30 -56 -58 -28 -28 28 -11 63 28 58 21 -2 28 -9 30
-30z"/>
<path d="M2390 326 c-104 -22 -121 -33 -102 -63 6 -10 32 -8 118 9 60 11 111
22 113 24 6 5 -9 54 -17 53 -4 -1 -54 -11 -112 -23z"/>
<path d="M2222 292 c-19 -3 -23 -9 -20 -30 2 -22 7 -26 28 -24 33 5 34 7 24
34 -7 17 -15 22 -32 20z"/>
<path d="M2138 273 c-11 -3 -18 -14 -18 -29 0 -18 5 -24 23 -24 13 0 26 2 29
5 7 7 -3 55 -11 54 -3 -1 -14 -3 -23 -6z"/>
<path d="M2784 245 c-19 -17 -35 -23 -51 -19 -38 10 -27 -17 27 -71 39 -38 53
-46 62 -37 9 9 9 15 0 24 -8 8 -4 20 19 46 l30 34 -22 24 c-28 30 -29 30 -65
-1z"/>
<path d="M2038 255 c-8 -8 3 -55 12 -55 24 0 40 15 40 36 0 18 -5 24 -23 24
-13 0 -26 -2 -29 -5z"/>
<path d="M2410 244 c-114 -24 -110 -23 -110 -49 0 -14 3 -25 8 -25 4 0 58 9
120 21 90 17 112 24 108 36 -3 8 -6 19 -6 24 0 12 -42 10 -120 -7z"/>
<path d="M2218 205 c-7 -7 2 -55 11 -55 3 0 15 3 27 6 30 8 21 54 -10 54 -13
0 -25 -2 -28 -5z"/>
<path d="M2153 192 c-13 -2 -23 -7 -23 -12 0 -24 15 -40 36 -40 19 0 24 5 24
24 0 29 -6 33 -37 28z"/>
<path d="M2062 171 c-19 -12 -11 -45 12 -49 25 -5 39 12 31 37 -7 22 -21 26
-43 12z"/>
</g>
</svg>
