<?xml version="1.0" standalone="no"?>
<!DOCTYPE svg PUBLIC "-//W3C//DTD SVG 20010904//EN"
 "http://www.w3.org/TR/2001/REC-SVG-20010904/DTD/svg10.dtd">
<svg version="1.0" xmlns="http://www.w3.org/2000/svg"
 width="288.000000pt" height="276.000000pt" viewBox="0 0 288.000000 276.000000"
 preserveAspectRatio="xMidYMid meet">

<g transform="translate(0.000000,276.000000) scale(0.100000,-0.100000)"
fill="#000000" stroke="none">
<path d="M1975 2284 c-88 -42 -175 -82 -192 -90 -18 -8 -39 -24 -47 -37 -8
-12 -36 -113 -61 -224 -43 -187 -46 -204 -32 -231 26 -53 258 -333 283 -343
35 -13 430 -12 455 1 27 15 278 326 285 354 3 13 -13 102 -35 199 -23 97 -41
182 -41 190 0 8 -10 28 -22 46 -18 25 -64 52 -211 122 -103 49 -196 89 -205
89 -10 0 -89 -34 -177 -76z m367 -40 c101 -47 188 -93 195 -101 10 -13 79
-283 99 -389 5 -28 -6 -45 -116 -185 -67 -85 -131 -162 -142 -171 -18 -16 -44
-18 -220 -18 -116 0 -207 4 -218 10 -21 11 -263 305 -272 331 -5 12 65 340 87
409 5 16 364 198 392 199 6 1 94 -38 195 -85z"/>
<path d="M2135 2190 c-3 -6 -3 -19 0 -30 11 -36 -3 -57 -43 -64 -20 -3 -59
-19 -85 -36 -58 -36 -64 -37 -97 -5 -18 18 -29 22 -40 14 -12 -8 -8 -15 24
-43 l40 -34 -18 -41 c-10 -22 -21 -66 -25 -98 -6 -58 -6 -58 -44 -64 -44 -7
-52 -13 -44 -33 5 -13 12 -14 32 -6 47 18 62 12 89 -34 14 -24 42 -58 63 -76
37 -33 37 -33 20 -62 -9 -16 -17 -38 -17 -49 0 -32 27 -21 43 18 l14 37 107 0
106 1 15 -37 c8 -21 22 -38 30 -38 19 0 19 21 -1 62 l-15 33 50 52 c28 29 53
64 57 79 6 25 8 26 61 19 44 -5 54 -4 51 7 -3 7 -18 17 -34 22 -54 16 -59 21
-62 72 -2 27 -12 68 -22 91 l-19 43 35 26 c36 28 45 54 18 54 -9 0 -29 -11
-46 -25 l-29 -25 -36 27 c-19 15 -58 34 -86 44 -52 17 -52 18 -55 63 -3 44
-21 62 -37 36z m-23 -262 c-9 -9 -102 48 -102 63 0 4 24 19 53 33 l52 27 3
-57 c2 -31 -1 -61 -6 -66z m152 87 c14 -10 26 -21 26 -26 0 -4 -20 -22 -44
-38 -53 -37 -66 -28 -66 45 l0 53 29 -9 c16 -4 40 -16 55 -25z m-239 -115 l39
-40 -35 -14 c-64 -27 -89 -30 -89 -12 0 35 23 106 34 106 7 0 29 -18 51 -40z
m324 3 c13 -46 14 -83 3 -83 -26 0 -102 34 -102 45 0 13 68 75 82 75 4 0 12
-17 17 -37z m-170 -47 c22 -26 -10 -63 -44 -50 -15 6 -21 45 -8 57 11 12 40 8
52 -7z m-99 -85 c0 -17 -41 -101 -49 -101 -14 0 -71 69 -71 85 0 7 12 16 28
18 51 8 92 7 92 -2z m229 3 c17 -4 31 -13 31 -20 0 -18 -60 -86 -73 -81 -12 4
-47 94 -39 101 7 8 42 7 81 0z m-121 -82 c13 -23 21 -46 17 -52 -8 -13 -102
-13 -110 0 -8 14 45 102 59 97 6 -2 21 -22 34 -45z"/>
<path d="M960 2234 c0 -52 -20 -225 -34 -294 -11 -51 -13 -55 -46 -62 -33 -7
-148 -20 -302 -35 l-67 -6 67 -72 c107 -114 182 -288 182 -420 0 -19 5 -37 11
-40 24 -16 -25 -185 -93 -323 -23 -46 -69 -115 -103 -155 l-62 -73 -7 -121
c-4 -67 -11 -137 -17 -155 -5 -18 -9 -47 -9 -63 l0 -31 138 -27 c75 -15 179
-34 231 -43 l94 -16 64 64 c124 121 255 305 323 451 87 189 113 303 114 497 0
158 -12 210 -75 328 -15 30 -21 48 -13 42 8 -7 14 -8 14 -3 0 17 -60 125 -102
183 l-39 55 45 -48 c25 -27 46 -46 46 -42 0 15 -76 134 -124 195 -67 84 -152
178 -198 219 l-38 33 0 -38z m69 -444 l66 0 11 -42 c6 -24 14 -50 17 -58 5
-11 -6 -21 -38 -37 -69 -35 -99 -31 -152 22 l-44 45 20 26 c12 15 21 33 21 41
0 10 6 13 16 9 9 -3 46 -6 83 -6z m-73 -195 c8 -21 97 -20 130 1 21 15 29 15
52 4 26 -13 26 -14 5 -18 -13 -2 -23 -10 -23 -17 0 -8 -9 -19 -20 -25 -21 -11
-21 -11 1 -42 18 -25 19 -32 8 -39 -60 -40 -102 -49 -142 -27 -34 18 -78 69
-75 86 2 12 -9 18 -41 24 -63 11 -61 16 8 24 55 6 66 12 62 37 -2 14 30 7 35
-8z m130 -239 c45 -45 44 -68 -3 -86 -21 -8 -40 -16 -43 -18 -3 -1 -14 20 -24
48 -10 27 -20 50 -21 50 -23 0 -59 -26 -69 -51 l-13 -30 -17 26 c-15 23 -15
28 -1 47 23 33 55 47 109 48 42 0 53 -5 82 -34z m17 -140 c22 -17 22 -33 -3
-48 -19 -12 -19 -13 2 -35 l21 -22 -27 -12 c-22 -11 -29 -10 -43 4 -15 15 -15
17 0 23 38 14 13 25 -50 22 -48 -2 -67 -7 -65 -15 3 -18 -9 -16 -34 5 l-21 17
23 34 c13 19 24 29 24 22 0 -8 21 -11 73 -9 51 2 71 7 70 16 -4 15 7 15 30 -2z
m-28 -201 l44 -45 -22 -33 c-22 -34 -22 -34 -89 -29 -56 4 -69 2 -74 -11 -5
-14 -10 -15 -27 -5 -32 16 -32 16 -8 41 l21 24 -20 25 -20 26 31 26 c23 20 42
26 76 26 40 0 49 -5 88 -45z m101 -263 c-3 -2 -13 1 -24 7 -32 17 -52 13 -52
-9 0 -11 -4 -20 -10 -20 -5 0 -10 11 -10 25 0 24 -2 25 -70 25 -67 0 -76 -4
-71 -33 2 -10 -36 9 -44 22 -3 6 3 24 14 41 11 19 22 27 25 21 4 -6 38 -11 77
-11 58 0 69 3 69 17 0 12 15 2 50 -32 27 -27 48 -51 46 -53z m-121 -56 c31
-13 65 -58 65 -86 0 -10 -58 -40 -79 -40 -5 0 -17 20 -27 45 -9 25 -22 45 -29
45 -21 0 -63 -39 -67 -61 -3 -19 -5 -18 -20 9 -17 29 -17 31 3 56 33 42 98 55
154 32z"/>
<path d="M942 1716 c-23 -52 44 -63 114 -18 24 15 44 30 44 35 0 4 -33 7 -73
7 -68 0 -75 -2 -85 -24z"/>
<path d="M936 1508 c-20 -28 -10 -38 40 -44 28 -4 48 1 72 16 47 29 36 44 -35
48 -54 3 -63 0 -77 -20z"/>
<path d="M1016 1328 c3 -13 8 -25 9 -26 5 -6 75 21 75 29 0 10 -28 19 -61 19
-27 0 -30 -3 -23 -22z"/>
<path d="M965 1011 c-28 -12 -48 -38 -40 -51 3 -5 34 -10 68 -10 53 0 64 3 75
21 9 14 10 25 4 31 -14 14 -83 19 -107 9z"/>
<path d="M1016 661 c-5 -8 4 -51 10 -51 20 0 76 32 68 39 -13 12 -72 22 -78
12z"/>
</g>
</svg>
