<?xml version="1.0" standalone="no"?>
<!DOCTYPE svg PUBLIC "-//W3C//DTD SVG 20010904//EN"
 "http://www.w3.org/TR/2001/REC-SVG-20010904/DTD/svg10.dtd">
<svg version="1.0" xmlns="http://www.w3.org/2000/svg"
 width="286.000000pt" height="423.000000pt" viewBox="0 0 286.000000 423.000000"
 preserveAspectRatio="xMidYMid meet">

<g transform="translate(0.000000,423.000000) scale(0.100000,-0.100000)"
fill="#000000" stroke="none">
<path d="M1274 4016 c-3 -9 -15 -16 -25 -16 -12 0 -19 -7 -19 -19 0 -10 -7
-22 -16 -25 -14 -5 -14 -9 -3 -23 11 -13 11 -17 2 -20 -16 -6 -17 -33 -2 -33
8 0 8 -5 -1 -15 -10 -12 -10 -18 0 -30 9 -10 9 -15 1 -15 -6 0 -11 -7 -11 -15
0 -8 5 -15 11 -15 8 0 8 -5 -1 -15 -10 -12 -10 -18 0 -30 9 -10 9 -15 1 -15
-6 0 -11 -7 -11 -15 0 -8 5 -15 11 -15 8 0 8 -5 -1 -15 -10 -12 -10 -18 0 -30
9 -10 9 -15 1 -15 -6 0 -11 -7 -11 -15 0 -8 5 -15 11 -15 8 0 8 -5 -1 -15 -10
-12 -10 -18 0 -30 9 -10 9 -15 1 -15 -6 0 -11 -7 -11 -15 0 -8 5 -15 11 -15 8
0 8 -5 -1 -15 -10 -12 -10 -18 0 -30 9 -10 9 -15 1 -15 -6 0 -11 -7 -11 -15 0
-8 5 -15 11 -15 8 0 8 -4 -1 -15 -6 -8 -9 -19 -5 -25 10 -16 -17 -12 -37 7
-17 15 -21 15 -29 3 -13 -20 -2 -60 23 -87 21 -23 24 -23 289 -23 l268 0 32
40 c30 37 37 40 83 42 l51 1 -45 4 c-82 8 -91 42 -12 45 38 1 41 2 12 5 -120
12 -137 32 -27 35 l72 1 -90 7 c-49 4 -98 11 -107 15 -9 4 -22 3 -29 -1 -7 -4
-27 -8 -46 -10 l-34 -3 3 42 3 42 145 -1 c80 0 108 1 63 3 -67 3 -81 6 -76 18
4 12 24 15 85 15 50 0 77 4 73 10 -3 6 -37 10 -75 10 -58 0 -71 3 -80 20 -8
15 -23 20 -68 22 l-57 3 32 18 c26 14 58 17 173 17 l140 0 0 25 c0 19 -5 25
-22 26 -13 0 -86 4 -162 8 -128 7 -141 10 -158 31 -16 20 -17 25 -5 44 15 22
30 24 260 41 l87 7 0 38 c0 27 -8 48 -24 67 l-24 28 -226 3 c-131 2 -226 7
-226 13 0 5 -7 9 -15 9 -8 0 -15 -5 -15 -11 0 -8 -5 -8 -15 1 -12 10 -18 10
-30 0 -10 -9 -15 -9 -15 -1 0 15 -27 14 -33 -1 -3 -10 -7 -10 -20 1 -14 11
-18 11 -23 -3z m116 -104 c14 -11 20 -25 17 -37 -5 -19 -5 -19 -12 2 -13 39
-54 40 -72 1 -6 -15 -12 -18 -17 -10 -7 12 35 62 52 62 6 0 20 -8 32 -18z"/>
<path d="M1649 3809 c-25 -21 -19 -25 10 -7 15 9 22 8 36 -5 21 -22 28 -21 50
3 l18 20 19 -20 c23 -25 27 -25 54 1 l22 21 11 -21 c16 -29 46 -26 60 7 l11
27 -21 -25 -21 -25 -15 23 c-19 28 -38 28 -57 0 l-16 -22 -20 22 c-24 26 -33
27 -50 7 -14 -16 -40 -20 -40 -6 0 19 -29 19 -51 0z"/>
<path d="M1947 3643 c-13 -13 -7 -81 7 -86 29 -11 51 42 30 72 -16 22 -26 26
-37 14z"/>
<path d="M1703 3513 c31 -2 83 -2 115 0 31 2 5 3 -58 3 -63 0 -89 -1 -57 -3z"/>
<path d="M1940 3409 c0 -54 -3 -64 -29 -90 l-29 -29 27 0 c35 0 106 74 95 99
-4 9 -8 21 -8 26 -1 13 -38 55 -48 55 -5 0 -8 -27 -8 -61z"/>
<path d="M1203 2834 c-9 -23 15 -34 72 -34 57 0 81 11 72 34 -5 12 -21 16 -72
16 -51 0 -67 -4 -72 -16z"/>
<path d="M1396 2835 c-7 -20 24 -35 76 -35 48 0 85 20 74 38 -11 19 -142 16
-150 -3z"/>
<path d="M1595 2840 c-13 -22 17 -40 65 -40 61 0 80 7 80 31 0 17 -8 19 -69
19 -39 0 -73 -5 -76 -10z"/>
<path d="M1793 2834 c-9 -23 15 -34 72 -34 57 0 81 11 72 34 -5 12 -21 16 -72
16 -51 0 -67 -4 -72 -16z"/>
<path d="M1207 2753 c-4 -3 -7 -35 -7 -70 l0 -64 73 3 72 3 3 53 c2 31 -2 60
-9 68 -12 14 -119 21 -132 7z"/>
<path d="M1402 2748 c-14 -14 -16 -96 -3 -116 5 -9 28 -12 77 -10 l69 3 3 53
c2 31 -2 60 -9 68 -14 18 -120 19 -137 2z"/>
<path d="M1601 2746 c-7 -8 -11 -37 -9 -68 l3 -53 69 -3 c78 -3 86 2 86 61 0
65 -12 77 -79 77 -38 0 -63 -5 -70 -14z"/>
<path d="M1802 2752 c-9 -6 -12 -28 -10 -68 l3 -59 73 -3 73 -3 -3 68 -3 68
-60 3 c-33 1 -66 -2 -73 -6z"/>
<path d="M1200 2505 l0 -66 73 3 72 3 0 60 0 60 -72 3 -73 3 0 -66z"/>
<path d="M1396 2555 c-9 -24 -7 -88 3 -103 5 -9 28 -12 77 -10 l69 3 0 60 0
60 -71 3 c-59 2 -73 0 -78 -13z"/>
<path d="M1794 2556 c-3 -7 -4 -35 -2 -62 l3 -49 73 -3 72 -3 0 66 0 65 -70 0
c-51 0 -72 -4 -76 -14z"/>
<path d="M1204 2377 c-3 -8 -4 -39 -2 -68 l3 -54 49 -3 c27 -2 60 -1 73 3 22
5 24 10 21 68 l-3 62 -68 3 c-51 2 -69 -1 -73 -11z"/>
<path d="M1797 2384 c-4 -4 -7 -33 -7 -65 0 -67 8 -73 96 -67 l49 3 0 65 0 65
-65 3 c-36 2 -69 0 -73 -4z"/>
<path d="M1204 2197 c-3 -8 -4 -39 -2 -68 l3 -54 70 0 70 0 0 65 0 65 -68 3
c-51 2 -69 -1 -73 -11z"/>
<path d="M825 1890 c-16 -5 -79 -16 -140 -25 -122 -17 -233 -35 -252 -41 -10
-3 -13 -49 -13 -191 l0 -188 94 -73 c51 -40 131 -95 177 -123 46 -27 93 -59
104 -71 l20 -20 -23 12 c-13 6 -25 10 -28 8 -7 -8 168 -148 184 -147 10 0 116
97 237 215 l220 215 -54 49 c-64 59 -83 64 -44 13 15 -21 -13 4 -63 55 -49 50
-93 92 -97 92 -4 0 9 -24 29 -52 l36 -53 -41 45 c-22 25 -41 48 -41 52 0 8
-261 238 -269 237 -3 -1 -19 -5 -36 -9z m-170 -105 c0 -43 1 -44 36 -50 l35
-6 -6 -47 c-3 -26 -9 -53 -14 -60 -21 -34 -152 -64 -163 -36 -4 11 -15 6 -44
-17 -47 -37 -49 -29 -9 31 26 40 28 46 14 61 -13 15 -13 17 1 22 8 4 21 4 29
1 18 -7 76 67 76 98 0 25 17 48 35 48 6 0 10 -19 10 -45z m208 -87 c18 2 41
-3 51 -11 18 -13 17 -14 -10 -10 -27 4 -37 -4 -108 -88 -69 -82 -76 -94 -61
-105 14 -11 12 -13 -15 -19 -17 -4 -32 -5 -33 -3 -2 1 -7 17 -14 35 -9 27 -8
32 6 36 24 6 141 154 142 180 2 21 2 21 6 2 3 -17 10 -20 36 -17z m91 -170 c2
-7 7 -26 12 -41 8 -26 4 -34 -39 -79 -37 -38 -46 -52 -37 -63 8 -10 4 -14 -16
-19 -30 -8 -47 8 -40 37 3 14 -3 17 -30 17 -33 0 -34 1 -34 44 0 74 47 113
143 115 22 1 39 -4 41 -11z m123 -128 c-4 -16 2 -19 31 -22 29 -2 37 -8 43
-30 6 -22 -1 -34 -42 -78 -35 -38 -48 -58 -44 -71 4 -11 2 -19 -4 -19 -5 0
-16 -3 -24 -6 -21 -8 -31 29 -16 58 6 13 27 40 45 61 38 42 45 77 15 77 -20 0
-91 -77 -91 -99 0 -6 -3 -11 -7 -11 -5 0 -18 -3 -30 -6 -20 -6 -23 -3 -23 25
0 17 4 31 10 31 10 0 69 61 84 87 5 10 4 18 -4 23 -8 5 -3 11 16 17 33 11 50
-4 41 -37z"/>
<path d="M606 1686 c-31 -38 -35 -48 -26 -70 5 -14 14 -26 18 -26 23 0 63 45
72 81 20 73 -11 80 -64 15z"/>
<path d="M865 1508 c-48 -37 -68 -118 -30 -118 20 0 86 82 80 98 -3 7 -5 20
-5 28 0 20 -13 18 -45 -8z"/>
<path d="M2020 863 c-14 -16 -115 -114 -224 -220 l-198 -191 29 -25 c86 -76
212 -181 236 -199 l27 -19 0 179 c0 132 3 182 13 190 10 9 104 18 390 39 42 3
77 9 77 13 0 4 -39 38 -87 76 -49 37 -118 94 -154 126 -36 32 -70 58 -75 58
-5 0 -21 -12 -34 -27z"/>
</g>
</svg>
