<?xml version="1.0" standalone="no"?>
<!DOCTYPE svg PUBLIC "-//W3C//DTD SVG 20010904//EN"
 "http://www.w3.org/TR/2001/REC-SVG-20010904/DTD/svg10.dtd">
<svg version="1.0" xmlns="http://www.w3.org/2000/svg"
 width="297.000000pt" height="394.000000pt" viewBox="0 0 297.000000 394.000000"
 preserveAspectRatio="xMidYMid meet">

<g transform="translate(0.000000,394.000000) scale(0.100000,-0.100000)"
fill="#000000" stroke="none">
<path d="M1840 3639 c-325 -314 -347 -336 -405 -424 -72 -110 -78 -118 -69
-82 6 27 5 28 -12 16 -11 -7 -85 -85 -165 -174 -81 -89 -167 -177 -190 -196
-43 -33 -43 -32 16 36 89 103 95 114 40 70 -27 -22 -54 -45 -60 -51 -20 -22
-301 -271 -343 -303 -24 -18 -41 -35 -40 -37 2 -2 73 -8 158 -14 85 -6 182
-13 214 -15 67 -5 75 -13 77 -70 0 -22 6 -109 12 -193 l12 -153 120 107 c66
59 149 134 185 168 36 34 123 115 194 181 165 152 219 205 236 230 14 19 14
19 -5 4 -11 -8 -49 -39 -85 -69 -92 -77 -29 -9 95 102 55 49 140 117 189 150
51 35 156 126 249 217 l160 156 -5 198 c-3 109 -8 201 -12 204 -8 8 -235 32
-361 39 l-100 5 -105 -102z m163 -211 c32 -12 32 -13 7 -58 -16 -28 -19 -31
-17 -12 1 18 -6 27 -30 37 -30 13 -33 13 -33 -4 0 -10 19 -35 41 -55 46 -40
90 -47 119 -21 16 15 17 13 7 -25 -10 -37 -14 -40 -47 -40 -41 0 -92 28 -116
66 -31 47 -13 144 24 129 9 -4 29 -12 45 -17z m-204 -71 c-2 -1 -15 -11 -29
-22 l-25 -20 19 23 c11 12 24 22 29 22 6 0 8 -1 6 -3z m59 -9 c7 -7 12 -26 12
-44 0 -28 4 -32 35 -38 42 -8 55 -30 55 -89 0 -40 -3 -45 -27 -51 -16 -3 -38
-8 -50 -12 -20 -5 -23 -2 -23 19 0 20 -6 26 -35 31 -39 8 -49 27 -43 92 2 31
8 39 27 44 33 8 51 37 31 50 -8 5 -10 10 -4 10 5 0 15 -5 22 -12z m-79 -230
c38 -40 53 -50 60 -40 6 10 10 8 14 -10 11 -41 8 -48 -23 -48 -25 0 -30 -4
-35 -34 -6 -32 -8 -33 -43 -26 -78 14 -102 47 -102 140 l0 59 38 4 c20 2 38 4
39 5 1 1 24 -22 52 -50z m-185 -93 l36 -15 -21 -41 c-11 -23 -18 -47 -15 -55
9 -23 53 -28 82 -9 l26 17 -7 -34 c-9 -42 -7 -41 -54 -41 -49 0 -102 37 -121
83 -10 24 -10 39 -1 71 13 43 22 46 75 24z m-192 -7 c-23 -23 -12 -43 70 -125
79 -80 107 -97 109 -70 1 6 5 -4 9 -23 5 -19 8 -35 7 -36 -1 -1 -19 -4 -39 -7
-26 -4 -38 -2 -38 6 0 14 -125 139 -155 155 -11 6 -14 12 -7 12 6 0 12 11 12
25 0 30 20 75 34 75 6 0 5 -5 -2 -12z m-9 -200 c32 -12 32 -13 7 -58 -16 -28
-19 -31 -17 -12 1 18 -6 27 -30 37 -30 13 -33 13 -33 -4 0 -10 19 -35 41 -55
46 -40 90 -47 119 -21 16 15 17 13 7 -25 -10 -37 -14 -40 -47 -40 -41 0 -92
28 -116 66 -31 47 -13 144 24 129 9 -4 29 -12 45 -17z m-135 -94 c15 -5 22
-14 22 -31 0 -20 -4 -24 -20 -20 -31 8 -24 -13 17 -55 22 -22 47 -38 60 -38
18 0 23 -6 23 -24 0 -19 -6 -25 -32 -29 -18 -2 -35 0 -37 5 -6 18 -63 79 -84
89 -14 8 -22 8 -27 -1 -5 -8 -10 -2 -14 15 -9 35 0 47 32 43 24 -3 27 0 24 25
-4 29 -1 30 36 21z"/>
<path d="M1820 3261 c-15 -4 -26 -15 -28 -29 -3 -19 1 -22 32 -22 33 0 36 2
36 30 0 32 -1 32 -40 21z"/>
<path d="M1874 3206 c-3 -8 -4 -23 -2 -34 3 -19 5 -19 41 -5 25 10 37 21 35
32 -4 22 -66 28 -74 7z"/>
<path d="M1683 3112 c-32 -5 -28 -29 11 -68 35 -35 96 -49 96 -21 0 24 -83 93
-107 89z"/>
<path d="M1530 2982 c0 -10 10 -28 23 -40 l24 -22 12 26 c6 15 10 27 9 28 -9
5 -60 26 -63 26 -3 0 -5 -8 -5 -18z"/>
<path d="M1233 1403 c-29 -20 -32 -49 -4 -33 11 5 22 10 25 10 3 0 6 -29 6
-65 0 -63 -1 -65 -25 -65 -16 0 -25 -6 -25 -15 0 -12 14 -15 70 -15 56 0 70 3
70 15 0 9 -9 15 -25 15 -25 0 -25 1 -25 85 0 82 -1 85 -22 84 -13 0 -33 -7
-45 -16z"/>
<path d="M1471 1394 c-47 -60 -15 -174 49 -174 41 0 70 41 70 97 0 44 -13 82
-34 95 -24 17 -65 8 -85 -18z m67 -16 c17 -17 15 -103 -3 -118 -12 -10 -18
-10 -30 0 -28 23 -16 130 15 130 3 0 11 -5 18 -12z"/>
<path d="M1720 1400 c-11 -11 -20 -24 -20 -30 0 -16 32 -12 52 7 17 16 20 16
35 0 16 -16 14 -20 -35 -70 -73 -74 -70 -87 18 -87 56 0 70 3 70 15 0 11 -12
15 -45 15 -25 0 -45 3 -45 6 0 4 20 24 45 46 51 45 58 78 23 102 -31 22 -74
20 -98 -4z"/>
<path d="M1370 1240 c0 -15 7 -20 25 -20 18 0 25 5 25 20 0 15 -7 20 -25 20
-18 0 -25 -5 -25 -20z"/>
<path d="M1620 1240 c0 -15 7 -20 25 -20 18 0 25 5 25 20 0 15 -7 20 -25 20
-18 0 -25 -5 -25 -20z"/>
<path d="M696 674 c-9 -8 -16 -20 -16 -25 0 -11 37 -49 48 -49 5 0 17 9 27 20
39 43 115 11 115 -48 0 -30 36 -72 61 -72 8 0 3 6 -11 13 -13 7 -29 26 -33 42
-5 17 -15 42 -22 58 l-14 27 170 0 170 0 -16 -30 c-8 -16 -15 -38 -15 -49 0
-11 -15 -31 -32 -45 -22 -17 -27 -26 -17 -26 20 0 49 -31 49 -54 0 -9 7 -30
15 -46 l16 -30 -60 0 c-40 0 -63 5 -71 15 -16 19 -59 19 -66 0 -9 -22 -216
-22 -234 0 -18 21 -57 19 -70 -5 -15 -28 4 -60 35 -60 14 0 30 9 37 20 11 18
24 20 113 20 88 0 103 -2 118 -20 22 -26 52 -25 71 1 11 16 21 20 40 15 32 -8
56 -32 56 -57 0 -28 26 -75 45 -83 9 -3 27 -6 39 -6 13 0 31 -9 41 -20 23 -25
40 -25 65 0 25 25 32 25 48 0 15 -25 47 -26 64 -1 8 11 27 21 43 24 l30 4 -31
2 c-18 0 -34 8 -38 16 -8 21 -63 19 -74 -2 -10 -17 -22 -14 -59 13 -20 14 -23
14 -42 -5 -43 -43 -121 -8 -121 53 0 12 -7 32 -16 44 l-15 22 63 0 c51 0 67
-4 81 -20 9 -11 26 -20 37 -20 11 0 25 9 32 20 12 18 24 20 137 20 119 0 123
-1 108 -18 -9 -10 -20 -34 -23 -53 -4 -19 -14 -43 -23 -54 -16 -20 -16 -20 5
-2 12 10 24 35 28 57 10 62 76 94 104 50 16 -26 58 -26 72 0 10 19 21 20 313
20 291 0 303 -1 315 -20 28 -45 97 -7 72 40 -13 24 -52 26 -70 5 -17 -20 -64
-19 -82 3 -8 9 -20 36 -27 60 -7 24 -18 45 -26 48 -10 4 -8 14 11 41 13 20 24
46 24 58 0 50 66 72 105 35 24 -23 50 -19 65 10 14 26 2 49 -28 57 -20 5 -29
1 -40 -15 l-14 -22 -507 0 c-495 0 -506 0 -519 20 -7 11 -21 20 -32 20 -11 0
-28 -9 -37 -20 -17 -19 -30 -20 -263 -20 -234 0 -246 1 -258 20 -15 24 -45 26
-66 4z m584 -44 c0 -5 9 -14 21 -21 17 -9 25 -7 43 10 22 21 30 21 496 21 458
0 473 -1 457 -18 -10 -10 -17 -26 -17 -35 0 -30 -22 -65 -49 -77 l-26 -13 27
-9 c21 -7 31 -22 46 -69 l19 -59 -224 0 -224 0 16 30 c8 16 15 38 15 48 0 19
23 45 50 55 12 4 11 6 -2 6 -25 1 -58 -35 -58 -63 0 -39 -36 -76 -75 -76 -20
0 -35 6 -39 15 -3 8 -16 15 -29 15 -14 0 -30 -7 -37 -15 -10 -12 -42 -15 -170
-15 -128 0 -160 3 -170 15 -7 8 -23 15 -37 15 -13 0 -26 -7 -29 -15 -6 -16
-60 -21 -80 -7 -15 10 -34 47 -34 68 0 10 -9 28 -21 40 l-21 22 21 21 c12 12
21 32 21 45 0 39 36 76 76 76 19 0 34 -4 34 -10z"/>
<path d="M1986 519 c-18 -27 -11 -47 21 -55 17 -5 31 -1 44 12 17 18 18 21 3
42 -19 28 -48 28 -68 1z"/>
<path d="M2102 528 c-7 -7 -12 -19 -12 -28 0 -40 61 -55 80 -21 13 25 13 27
-6 45 -18 19 -45 21 -62 4z"/>
<path d="M992 528 c-27 -27 -6 -68 35 -68 24 0 43 26 35 50 -10 30 -48 40 -70
18z"/>
</g>
</svg>
