<?xml version="1.0" encoding="UTF-8"?>
<svg xmlns="http://www.w3.org/2000/svg" xmlns:xlink="http://www.w3.org/1999/xlink" width="291px" height="150px" viewBox="0 0 290 150" version="1.1">
<defs>
<filter id="alpha" filterUnits="objectBoundingBox" x="0%" y="0%" width="100%" height="100%">
  <feColorMatrix type="matrix" in="SourceGraphic" values="0 0 0 0 1 0 0 0 0 1 0 0 0 0 1 0 0 0 1 0"/>
</filter>
<mask id="mask0">
  <g filter="url(#alpha)">
<rect x="0" y="0" width="290" height="150" style="fill:rgb(0%,0%,0%);fill-opacity:0.2;stroke:none;"/>
  </g>
</mask>
<clipPath id="clip1">
  <rect x="0" y="0" width="290" height="150"/>
</clipPath>
<g id="surface5" clip-path="url(#clip1)">
<path style=" stroke:none;fill-rule:nonzero;fill:rgb(0%,0%,0%);fill-opacity:1;" d="M 232.460938 58.113281 C 225.667969 62.003906 217.308594 61.90625 210.605469 57.863281 L 211.707031 53.929688 L 231.273438 54.265625 Z M 232.460938 58.113281 "/>
</g>
<mask id="mask1">
  <g filter="url(#alpha)">
<rect x="0" y="0" width="290" height="150" style="fill:rgb(0%,0%,0%);fill-opacity:0.2;stroke:none;"/>
  </g>
</mask>
<clipPath id="clip2">
  <rect x="0" y="0" width="290" height="150"/>
</clipPath>
<g id="surface8" clip-path="url(#clip2)">
<path style=" stroke:none;fill-rule:nonzero;fill:rgb(0%,0%,0%);fill-opacity:1;" d="M 65.976562 51.453125 C 72.769531 55.34375 81.132812 55.25 87.835938 51.203125 L 86.730469 47.269531 L 67.164062 47.605469 Z M 65.976562 51.453125 "/>
</g>
</defs>
<g id="surface1">
<path style=" stroke:none;fill-rule:nonzero;fill:rgb(90.196078%,90.196078%,90.196078%);fill-opacity:1;" d="M 290.023438 130.121094 C 290.023438 127.875 225.101562 126.058594 145.011719 126.058594 C 64.925781 126.058594 0 127.875 0 130.121094 C 0 132.363281 64.925781 134.183594 145.011719 134.183594 C 225.101562 134.183594 290.023438 132.363281 290.023438 130.121094 Z M 290.023438 130.121094 "/>
<path style=" stroke:none;fill-rule:nonzero;fill:rgb(24.705882%,23.921569%,33.72549%);fill-opacity:1;" d="M 222.292969 86.089844 C 222.109375 86.089844 221.925781 86.09375 221.742188 86.09375 C 221.554688 86.09375 221.375 86.089844 221.191406 86.089844 C 211.484375 85.867188 204.445312 79.792969 206.238281 73.417969 L 210.605469 57.863281 L 211.707031 53.929688 L 231.273438 54.265625 L 232.460938 58.113281 L 237.144531 73.265625 C 239.125 79.675781 232.089844 85.867188 222.292969 86.089844 Z M 222.292969 86.089844 "/>
<use xlink:href="#surface5" mask="url(#mask0)"/>
<path style=" stroke:none;fill-rule:nonzero;fill:rgb(24.705882%,23.921569%,33.72549%);fill-opacity:1;" d="M 231.636719 73.933594 C 232.480469 70.777344 235.257812 66.226562 243.050781 60.738281 C 256.636719 51.164062 248.53125 43.984375 248.179688 43.683594 C 247.441406 43.054688 247.550781 42.34375 248.433594 42.101562 C 249.46875 41.894531 250.542969 42.144531 251.378906 42.789062 C 251.820312 43.15625 261.96875 51.835938 246.636719 62.636719 C 232.839844 72.359375 235.773438 78.707031 235.808594 78.765625 C 236.175781 79.445312 235.585938 79.988281 234.480469 79.980469 C 233.378906 79.972656 232.1875 79.417969 231.816406 78.742188 C 231.738281 78.597656 230.847656 76.871094 231.636719 73.933594 Z M 231.636719 73.933594 "/>
<path style=" stroke:none;fill-rule:nonzero;fill:rgb(24.705882%,23.921569%,33.72549%);fill-opacity:1;" d="M 212.710938 88.355469 C 211.464844 88.355469 210.453125 87.34375 210.453125 86.09375 L 210.453125 76.292969 C 210.453125 75.042969 211.464844 74.03125 212.710938 74.03125 C 213.957031 74.03125 214.96875 75.042969 214.96875 76.292969 L 214.96875 86.09375 C 214.96875 87.34375 213.957031 88.355469 212.710938 88.355469 Z M 212.710938 88.355469 "/>
<path style=" stroke:none;fill-rule:nonzero;fill:rgb(24.705882%,23.921569%,33.72549%);fill-opacity:1;" d="M 214.691406 65.089844 C 214.171875 66.222656 212.828125 66.722656 211.695312 66.199219 L 202.808594 62.101562 C 201.679688 61.578125 201.183594 60.238281 201.703125 59.105469 C 202.226562 57.96875 203.566406 57.472656 204.695312 57.992188 L 213.585938 62.089844 C 214.714844 62.613281 215.210938 63.953125 214.691406 65.089844 Z M 214.691406 65.089844 "/>
<path style=" stroke:none;fill-rule:nonzero;fill:rgb(24.705882%,23.921569%,33.72549%);fill-opacity:1;" d="M 228.792969 65.089844 C 229.3125 66.222656 230.652344 66.722656 231.785156 66.199219 L 240.671875 62.101562 C 241.804688 61.582031 242.300781 60.238281 241.78125 59.101562 C 241.261719 57.96875 239.917969 57.472656 238.785156 57.992188 L 229.898438 62.089844 C 228.765625 62.613281 228.269531 63.953125 228.792969 65.089844 Z M 228.792969 65.089844 "/>
<path style=" stroke:none;fill-rule:nonzero;fill:rgb(24.705882%,23.921569%,33.72549%);fill-opacity:1;" d="M 230.773438 88.355469 C 232.019531 88.355469 233.027344 87.34375 233.027344 86.09375 L 233.027344 76.292969 C 233.027344 75.042969 232.019531 74.03125 230.773438 74.03125 C 229.523438 74.03125 228.515625 75.042969 228.515625 76.292969 L 228.515625 86.09375 C 228.515625 87.34375 229.523438 88.355469 230.773438 88.355469 Z M 230.773438 88.355469 "/>
<path style=" stroke:none;fill-rule:nonzero;fill:rgb(24.705882%,23.921569%,33.72549%);fill-opacity:1;" d="M 240.207031 24.910156 C 240.601562 24.414062 240.765625 23.769531 240.652344 23.140625 L 239.425781 15.902344 L 238.195312 8.660156 C 238.0625 7.863281 237.511719 7.203125 236.757812 6.921875 C 236.003906 6.640625 235.15625 6.785156 234.535156 7.300781 L 228.890625 11.984375 L 225.488281 14.808594 C 223.21875 14.40625 220.902344 14.371094 218.621094 14.707031 L 215.347656 11.984375 L 209.703125 7.300781 C 209.082031 6.785156 208.234375 6.640625 207.476562 6.921875 C 206.722656 7.203125 206.175781 7.863281 206.039062 8.660156 L 204.8125 15.902344 L 203.582031 23.144531 C 203.515625 23.523438 203.550781 23.914062 203.679688 24.277344 C 197.851562 33.230469 199.433594 45.105469 207.398438 52.214844 C 215.363281 59.324219 227.320312 59.53125 235.527344 52.703125 C 243.734375 45.871094 245.722656 34.058594 240.207031 24.910156 Z M 240.207031 24.910156 "/>
<path style=" stroke:none;fill-rule:nonzero;fill:rgb(90.196078%,90.196078%,90.196078%);fill-opacity:1;" d="M 209.136719 10.265625 C 209 10.265625 208.867188 10.292969 208.742188 10.339844 C 208.367188 10.476562 208.097656 10.804688 208.03125 11.199219 L 206.542969 19.980469 C 206.472656 20.375 206.621094 20.773438 206.929688 21.027344 C 207.238281 21.285156 207.65625 21.355469 208.03125 21.214844 L 216.367188 18.117188 C 216.738281 17.980469 217.011719 17.652344 217.078125 17.257812 C 217.144531 16.863281 216.996094 16.464844 216.691406 16.210938 L 216.691406 16.207031 L 209.84375 10.527344 C 209.644531 10.359375 209.394531 10.269531 209.136719 10.265625 Z M 209.136719 10.265625 "/>
<path style=" stroke:none;fill-rule:nonzero;fill:rgb(90.196078%,90.196078%,90.196078%);fill-opacity:1;" d="M 235.101562 10.265625 C 234.839844 10.269531 234.589844 10.359375 234.390625 10.527344 L 227.546875 16.210938 C 227.238281 16.464844 227.089844 16.863281 227.15625 17.257812 C 227.226562 17.652344 227.496094 17.980469 227.871094 18.117188 L 236.207031 21.214844 C 236.578125 21.355469 237 21.285156 237.304688 21.027344 C 237.613281 20.773438 237.761719 20.375 237.695312 19.980469 L 236.203125 11.199219 C 236.140625 10.804688 235.867188 10.476562 235.492188 10.339844 C 235.367188 10.292969 235.234375 10.265625 235.101562 10.265625 Z M 235.101562 10.265625 "/>
<path style=" stroke:none;fill-rule:nonzero;fill:rgb(90.196078%,90.196078%,90.196078%);fill-opacity:1;" d="M 224.75 39.105469 C 224.75 40.769531 223.402344 42.121094 221.742188 42.121094 C 220.078125 42.121094 218.730469 40.769531 218.730469 39.105469 C 218.730469 37.4375 220.078125 36.089844 221.742188 36.089844 C 223.402344 36.089844 224.75 37.4375 224.75 39.105469 Z M 224.75 39.105469 "/>
<path style=" stroke:none;fill-rule:nonzero;fill:rgb(24.705882%,23.921569%,33.72549%);fill-opacity:1;" d="M 223.75 37.597656 C 223.75 37.179688 222.851562 36.84375 221.742188 36.84375 C 220.632812 36.84375 219.734375 37.179688 219.734375 37.597656 C 219.734375 38.011719 220.632812 38.351562 221.742188 38.351562 C 222.851562 38.351562 223.75 38.011719 223.75 37.597656 Z M 223.75 37.597656 "/>
<path style=" stroke:none;fill-rule:nonzero;fill:rgb(100%,39.607843%,51.764706%);fill-opacity:1;" d="M 220.238281 40.863281 L 222.996094 40.863281 L 222.996094 44.253906 C 222.996094 45.019531 222.378906 45.636719 221.617188 45.636719 C 220.855469 45.636719 220.238281 45.019531 220.238281 44.253906 Z M 220.238281 40.863281 "/>
<path style=" stroke:none;fill-rule:nonzero;fill:rgb(24.705882%,23.921569%,33.72549%);fill-opacity:1;" d="M 221.910156 6.660156 C 221.765625 6.960938 221.625 7.265625 221.492188 7.574219 C 219.933594 11.210938 219.410156 15.207031 219.976562 19.125 C 220.257812 18.714844 220.554688 18.285156 220.855469 17.855469 C 220.210938 14.09375 220.574219 10.230469 221.910156 6.660156 Z M 221.910156 6.660156 "/>
<path style=" stroke:none;fill-rule:nonzero;fill:rgb(24.705882%,23.921569%,33.72549%);fill-opacity:1;" d="M 224.167969 9.425781 C 224.023438 9.726562 223.882812 10.027344 223.75 10.339844 C 222.191406 13.976562 221.667969 17.972656 222.230469 21.890625 C 222.515625 21.476562 222.8125 21.050781 223.113281 20.617188 C 222.46875 16.859375 222.832031 12.996094 224.167969 9.425781 Z M 224.167969 9.425781 "/>
<path style=" stroke:none;fill-rule:nonzero;fill:rgb(0%,0%,0%);fill-opacity:1;" d="M 231.125 63.6875 L 230.492188 55.585938 C 230.457031 55.140625 230.1875 54.746094 229.785156 54.554688 C 229.382812 54.363281 228.90625 54.402344 228.539062 54.652344 L 225.195312 56.957031 L 222.753906 58.636719 C 222.4375 58.265625 221.976562 58.050781 221.492188 58.050781 C 221.003906 58.050781 220.542969 58.265625 220.226562 58.636719 L 217.785156 56.957031 L 214.441406 54.652344 C 214.074219 54.402344 213.601562 54.363281 213.199219 54.554688 C 212.796875 54.746094 212.527344 55.140625 212.492188 55.585938 L 212.171875 59.636719 L 211.855469 63.6875 C 211.820312 64.132812 212.023438 64.566406 212.390625 64.816406 C 212.761719 65.070312 213.234375 65.109375 213.636719 64.914062 L 217.296875 63.164062 L 220.304688 61.726562 C 220.621094 62.046875 221.046875 62.222656 221.492188 62.222656 C 221.9375 62.222656 222.363281 62.046875 222.675781 61.726562 L 225.683594 63.164062 L 229.34375 64.914062 C 229.746094 65.109375 230.222656 65.070312 230.589844 64.816406 C 230.957031 64.566406 231.160156 64.132812 231.125 63.6875 Z M 231.125 63.6875 "/>
<path style=" stroke:none;fill-rule:nonzero;fill:rgb(90.196078%,90.196078%,90.196078%);fill-opacity:1;" d="M 218.480469 35.835938 C 218.480469 36.253906 218.144531 36.589844 217.730469 36.589844 C 217.3125 36.589844 216.976562 36.253906 216.976562 35.835938 C 216.976562 35.421875 217.3125 35.082031 217.730469 35.082031 C 218.144531 35.082031 218.480469 35.421875 218.480469 35.835938 Z M 218.480469 35.835938 "/>
<path style=" stroke:none;fill-rule:nonzero;fill:rgb(90.196078%,90.196078%,90.196078%);fill-opacity:1;" d="M 226.507812 35.835938 C 226.507812 36.253906 226.171875 36.589844 225.753906 36.589844 C 225.339844 36.589844 225.003906 36.253906 225.003906 35.835938 C 225.003906 35.421875 225.339844 35.082031 225.753906 35.082031 C 226.171875 35.082031 226.507812 35.421875 226.507812 35.835938 Z M 226.507812 35.835938 "/>
<path style=" stroke:none;fill-rule:nonzero;fill:rgb(24.705882%,23.921569%,33.72549%);fill-opacity:1;" d="M 76.144531 79.429688 C 76.328125 79.429688 76.511719 79.433594 76.699219 79.433594 C 76.882812 79.433594 77.066406 79.429688 77.25 79.429688 C 86.957031 79.207031 93.992188 73.132812 92.199219 66.757812 L 87.835938 51.203125 L 86.730469 47.269531 L 67.164062 47.605469 L 65.976562 51.453125 L 61.296875 66.605469 C 59.316406 73.015625 66.351562 79.207031 76.144531 79.429688 Z M 76.144531 79.429688 "/>
<use xlink:href="#surface8" mask="url(#mask1)"/>
<path style=" stroke:none;fill-rule:nonzero;fill:rgb(24.705882%,23.921569%,33.72549%);fill-opacity:1;" d="M 64.425781 65.429688 C 62.316406 62.941406 57.859375 60.015625 48.472656 58.394531 C 32.105469 55.566406 36.367188 45.605469 36.554688 45.183594 C 36.949219 44.296875 36.550781 43.703125 35.648438 43.859375 C 34.625 44.117188 33.761719 44.804688 33.28125 45.746094 C 33.039062 46.261719 27.574219 58.460938 46.042969 61.652344 C 62.667969 64.523438 62.726562 71.519531 62.722656 71.585938 C 62.675781 72.359375 63.445312 72.597656 64.4375 72.117188 C 65.429688 71.636719 66.273438 70.625 66.320312 69.851562 C 66.328125 69.6875 66.390625 67.746094 64.425781 65.429688 Z M 64.425781 65.429688 "/>
<path style=" stroke:none;fill-rule:nonzero;fill:rgb(24.705882%,23.921569%,33.72549%);fill-opacity:1;" d="M 85.726562 81.695312 C 86.972656 81.695312 87.984375 80.683594 87.984375 79.433594 L 87.984375 69.632812 C 87.984375 68.386719 86.972656 67.375 85.726562 67.375 C 84.480469 67.375 83.472656 68.386719 83.46875 69.632812 L 83.46875 79.433594 C 83.46875 80.683594 84.480469 81.695312 85.726562 81.695312 Z M 85.726562 81.695312 "/>
<path style=" stroke:none;fill-rule:nonzero;fill:rgb(24.705882%,23.921569%,33.72549%);fill-opacity:1;" d="M 83.746094 58.429688 C 84.269531 59.5625 85.609375 60.0625 86.742188 59.539062 L 95.628906 55.441406 C 96.363281 55.105469 96.859375 54.402344 96.9375 53.597656 C 97.011719 52.792969 96.648438 52.007812 95.992188 51.539062 C 95.332031 51.074219 94.476562 50.996094 93.742188 51.332031 L 84.855469 55.429688 C 83.722656 55.953125 83.226562 57.292969 83.746094 58.429688 Z M 83.746094 58.429688 "/>
<path style=" stroke:none;fill-rule:nonzero;fill:rgb(24.705882%,23.921569%,33.72549%);fill-opacity:1;" d="M 69.648438 58.429688 C 69.125 59.5625 67.785156 60.0625 66.652344 59.539062 L 57.765625 55.441406 C 57.03125 55.105469 56.535156 54.402344 56.460938 53.597656 C 56.382812 52.792969 56.746094 52.007812 57.402344 51.539062 C 58.0625 51.074219 58.917969 50.996094 59.652344 51.332031 L 68.539062 55.429688 C 69.671875 55.953125 70.167969 57.292969 69.648438 58.429688 Z M 69.648438 58.429688 "/>
<path style=" stroke:none;fill-rule:nonzero;fill:rgb(24.705882%,23.921569%,33.72549%);fill-opacity:1;" d="M 67.667969 81.695312 C 66.421875 81.695312 65.410156 80.683594 65.410156 79.433594 L 65.410156 69.632812 C 65.410156 68.386719 66.421875 67.375 67.667969 67.375 C 68.914062 67.375 69.921875 68.386719 69.925781 69.632812 L 69.925781 79.433594 C 69.925781 80.683594 68.914062 81.695312 67.667969 81.695312 Z M 67.667969 81.695312 "/>
<path style=" stroke:none;fill-rule:nonzero;fill:rgb(24.705882%,23.921569%,33.72549%);fill-opacity:1;" d="M 94.757812 17.617188 C 94.890625 17.253906 94.921875 16.863281 94.855469 16.484375 L 93.628906 9.242188 L 92.398438 2 C 92.265625 1.207031 91.714844 0.542969 90.960938 0.261719 C 90.207031 -0.0195312 89.359375 0.125 88.738281 0.640625 L 83.09375 5.328125 L 79.816406 8.046875 C 77.539062 7.710938 75.21875 7.746094 72.949219 8.148438 L 69.550781 5.328125 L 63.90625 0.640625 C 63.285156 0.125 62.4375 -0.0195312 61.679688 0.261719 C 60.925781 0.542969 60.378906 1.207031 60.242188 2 L 59.015625 9.242188 L 57.785156 16.484375 C 57.675781 17.109375 57.839844 17.753906 58.234375 18.25 C 52.710938 27.402344 54.695312 39.222656 62.90625 46.058594 C 71.113281 52.890625 83.078125 52.683594 91.046875 45.570312 C 99.015625 38.457031 100.59375 26.570312 94.757812 17.617188 Z M 94.757812 17.617188 "/>
<path style=" stroke:none;fill-rule:nonzero;fill:rgb(90.196078%,90.196078%,90.196078%);fill-opacity:1;" d="M 88.59375 3.867188 L 81.75 9.550781 C 81.441406 9.804688 81.292969 10.203125 81.359375 10.597656 C 81.425781 10.992188 81.699219 11.320312 82.074219 11.457031 L 90.410156 14.558594 C 90.78125 14.695312 91.203125 14.625 91.507812 14.371094 C 91.816406 14.113281 91.964844 13.714844 91.898438 13.320312 L 90.40625 4.539062 C 90.34375 4.144531 90.070312 3.816406 89.695312 3.679688 C 89.570312 3.632812 89.4375 3.605469 89.304688 3.605469 C 89.042969 3.609375 88.792969 3.699219 88.59375 3.867188 Z M 88.59375 3.867188 "/>
<path style=" stroke:none;fill-rule:nonzero;fill:rgb(90.196078%,90.196078%,90.196078%);fill-opacity:1;" d="M 62.945312 3.679688 C 62.570312 3.816406 62.300781 4.144531 62.234375 4.539062 L 60.746094 13.320312 C 60.675781 13.714844 60.824219 14.113281 61.132812 14.371094 C 61.441406 14.625 61.859375 14.695312 62.234375 14.558594 L 70.570312 11.457031 C 70.941406 11.320312 71.214844 10.992188 71.28125 10.597656 C 71.347656 10.203125 71.199219 9.804688 70.894531 9.550781 L 64.046875 3.867188 C 63.847656 3.699219 63.597656 3.609375 63.339844 3.605469 C 63.203125 3.605469 63.070312 3.632812 62.945312 3.679688 Z M 62.945312 3.679688 "/>
<path style=" stroke:none;fill-rule:nonzero;fill:rgb(90.196078%,90.196078%,90.196078%);fill-opacity:1;" d="M 79.707031 32.445312 C 79.707031 34.109375 78.359375 35.460938 76.699219 35.460938 C 75.035156 35.460938 73.6875 34.109375 73.6875 32.445312 C 73.6875 30.777344 75.035156 29.429688 76.699219 29.429688 C 78.359375 29.429688 79.707031 30.777344 79.707031 32.445312 Z M 79.707031 32.445312 "/>
<path style=" stroke:none;fill-rule:nonzero;fill:rgb(24.705882%,23.921569%,33.72549%);fill-opacity:1;" d="M 78.703125 30.9375 C 78.703125 30.519531 77.804688 30.183594 76.699219 30.183594 C 75.589844 30.183594 74.691406 30.519531 74.691406 30.9375 C 74.691406 31.351562 75.589844 31.691406 76.699219 31.691406 C 77.804688 31.691406 78.703125 31.351562 78.703125 30.9375 Z M 78.703125 30.9375 "/>
<path style=" stroke:none;fill-rule:nonzero;fill:rgb(100%,39.607843%,51.764706%);fill-opacity:1;" d="M 76.824219 38.976562 C 76.0625 38.976562 75.441406 38.359375 75.441406 37.59375 L 75.441406 34.203125 L 78.203125 34.203125 L 78.203125 37.59375 C 78.203125 38.359375 77.585938 38.976562 76.824219 38.976562 Z M 76.824219 38.976562 "/>
<path style=" stroke:none;fill-rule:nonzero;fill:rgb(24.705882%,23.921569%,33.72549%);fill-opacity:1;" d="M 76.53125 0 C 76.675781 0.300781 76.816406 0.605469 76.945312 0.914062 C 78.503906 4.550781 79.027344 8.546875 78.464844 12.464844 C 78.183594 12.054688 77.886719 11.625 77.582031 11.195312 C 78.230469 7.433594 77.867188 3.570312 76.53125 0 Z M 76.53125 0 "/>
<path style=" stroke:none;fill-rule:nonzero;fill:rgb(24.705882%,23.921569%,33.72549%);fill-opacity:1;" d="M 74.273438 2.765625 C 74.417969 3.066406 74.558594 3.367188 74.691406 3.679688 C 76.246094 7.316406 76.769531 11.3125 76.207031 15.230469 C 75.925781 14.816406 75.628906 14.390625 75.324219 13.957031 C 75.972656 10.199219 75.609375 6.335938 74.273438 2.765625 Z M 74.273438 2.765625 "/>
<path style=" stroke:none;fill-rule:nonzero;fill:rgb(0%,0%,0%);fill-opacity:1;" d="M 67.3125 13.054688 L 67.628906 9.003906 L 67.949219 4.953125 C 67.984375 4.507812 68.253906 4.113281 68.65625 3.921875 C 69.058594 3.730469 69.53125 3.765625 69.898438 4.019531 L 73.242188 6.320312 L 75.683594 8 C 76 7.632812 76.460938 7.417969 76.949219 7.417969 C 77.433594 7.417969 77.894531 7.632812 78.210938 8 L 80.652344 6.320312 L 83.996094 4.019531 C 84.363281 3.765625 84.839844 3.730469 85.242188 3.921875 C 85.644531 4.113281 85.914062 4.507812 85.949219 4.953125 L 86.582031 13.054688 C 86.617188 13.5 86.414062 13.929688 86.046875 14.183594 C 85.679688 14.4375 85.203125 14.472656 84.800781 14.28125 L 81.140625 12.53125 L 78.132812 11.09375 C 77.820312 11.410156 77.394531 11.589844 76.949219 11.589844 C 76.503906 11.589844 76.078125 11.410156 75.765625 11.09375 L 72.753906 12.53125 L 69.09375 14.28125 C 68.691406 14.472656 68.21875 14.4375 67.851562 14.183594 C 67.480469 13.929688 67.277344 13.5 67.3125 13.054688 Z M 67.3125 13.054688 "/>
<path style=" stroke:none;fill-rule:nonzero;fill:rgb(90.196078%,90.196078%,90.196078%);fill-opacity:1;" d="M 79.957031 29.175781 C 79.957031 29.59375 80.296875 29.175781 80.710938 29.175781 C 81.125 29.175781 81.464844 29.59375 81.464844 29.175781 C 81.460938 28.761719 81.125 28.425781 80.710938 28.425781 C 80.296875 28.425781 79.960938 28.761719 79.957031 29.175781 Z M 79.957031 29.175781 "/>
<path style=" stroke:none;fill-rule:nonzero;fill:rgb(90.196078%,90.196078%,90.196078%);fill-opacity:1;" d="M 73.4375 29.175781 C 73.4375 29.59375 73.101562 29.175781 72.683594 29.175781 C 72.269531 29.175781 71.929688 29.59375 71.929688 29.175781 C 71.933594 28.761719 72.269531 28.425781 72.683594 28.425781 C 73.097656 28.425781 73.4375 28.761719 73.4375 29.175781 Z M 73.4375 29.175781 "/>
<path style=" stroke:none;fill-rule:nonzero;fill:rgb(24.705882%,23.921569%,33.72549%);fill-opacity:1;" d="M 156.921875 86.09375 L 156.921875 81.304688 L 133.007812 81.304688 L 133.007812 129.519531 L 156.921875 129.519531 L 156.921875 124.730469 L 137.789062 124.730469 L 137.789062 86.09375 Z M 156.921875 86.09375 "/>
<path style=" stroke:none;fill-rule:nonzero;fill:rgb(0%,0%,0%);fill-opacity:1;" d="M 168.582031 81.304688 L 168.582031 129.519531 L 192.496094 129.519531 L 192.496094 81.304688 Z M 187.714844 124.730469 L 173.363281 124.730469 L 173.363281 86.09375 L 187.714844 86.09375 Z M 187.714844 124.730469 "/>
<path style=" stroke:none;fill-rule:nonzero;fill:rgb(0%,0%,0%);fill-opacity:1;" d="M 102.214844 124.730469 L 102.214844 81.601562 L 97.433594 81.601562 L 97.433594 129.519531 L 121.347656 129.519531 L 121.347656 124.730469 Z M 102.214844 124.730469 "/>
<path style=" stroke:none;fill-rule:nonzero;fill:rgb(24.705882%,23.921569%,33.72549%);fill-opacity:1;" d="M 86.671875 86.09375 L 86.671875 81.304688 L 62.753906 81.304688 L 62.753906 129.519531 L 86.671875 129.519531 L 86.671875 124.730469 L 67.539062 124.730469 L 67.539062 107.65625 L 86.671875 107.65625 L 86.671875 102.867188 L 67.539062 102.867188 L 67.539062 86.09375 Z M 86.671875 86.09375 "/>
<path style=" stroke:none;fill-rule:nonzero;fill:rgb(0%,0%,0%);fill-opacity:1;" d="M 273.8125 86.09375 L 273.8125 81.304688 L 249.894531 81.304688 L 249.894531 129.519531 L 273.8125 129.519531 L 273.8125 124.730469 L 254.679688 124.730469 L 254.679688 107.65625 L 273.8125 107.65625 L 273.8125 102.867188 L 254.679688 102.867188 L 254.679688 86.09375 Z M 273.8125 86.09375 "/>
<path style=" stroke:none;fill-rule:nonzero;fill:rgb(24.705882%,23.921569%,33.72549%);fill-opacity:1;" d="M 46.613281 81.601562 L 46.613281 121.207031 L 34 108.570312 L 33.972656 108.601562 L 33.945312 108.574219 L 21.050781 121.488281 L 21.050781 81.453125 L 16.269531 81.453125 L 16.269531 129.371094 L 21.050781 129.371094 L 21.050781 128.265625 L 33.972656 115.320312 L 46.613281 127.984375 L 46.613281 129.519531 L 51.394531 129.519531 L 51.394531 81.601562 Z M 46.613281 81.601562 "/>
<path style=" stroke:none;fill-rule:nonzero;fill:rgb(24.705882%,23.921569%,33.72549%);fill-opacity:1;" d="M 234.050781 81.601562 L 234.050781 82.707031 L 221.128906 95.652344 L 208.492188 82.992188 L 208.492188 81.453125 L 203.707031 81.453125 L 203.707031 129.371094 L 208.492188 129.371094 L 208.492188 89.769531 L 221.101562 102.402344 L 221.132812 102.371094 L 221.15625 102.398438 L 234.050781 89.484375 L 234.050781 129.519531 L 238.835938 129.519531 L 238.835938 81.601562 Z M 234.050781 81.601562 "/>
<path style=" stroke:none;fill-rule:nonzero;fill:rgb(0%,0%,0%);fill-opacity:1;" d="M 112.242188 49.144531 C 112.242188 50.769531 110.925781 52.085938 109.304688 52.085938 C 107.683594 52.085938 106.367188 50.769531 106.367188 49.144531 C 106.367188 47.519531 107.683594 46.203125 109.304688 46.203125 C 110.925781 46.203125 112.242188 47.519531 112.242188 49.144531 Z M 112.242188 49.144531 "/>
<path style=" stroke:none;fill-rule:nonzero;fill:rgb(0%,0%,0%);fill-opacity:1;" d="M 39.820312 81.824219 C 39.820312 83.449219 38.507812 84.765625 36.886719 84.765625 C 35.265625 84.765625 33.949219 83.449219 33.949219 81.824219 C 33.949219 80.199219 35.265625 78.882812 36.886719 78.882812 C 38.507812 78.882812 39.820312 80.199219 39.820312 81.824219 Z M 39.820312 81.824219 "/>
<path style=" stroke:none;fill-rule:nonzero;fill:rgb(0%,0%,0%);fill-opacity:1;" d="M 97.886719 147.183594 C 97.886719 148.808594 96.574219 150.125 94.953125 150.125 C 93.332031 150.125 92.015625 148.808594 92.015625 147.183594 C 92.015625 145.558594 93.332031 144.242188 94.953125 144.242188 C 96.574219 144.242188 97.886719 145.558594 97.886719 147.183594 Z M 97.886719 147.183594 "/>
<path style=" stroke:none;fill-rule:nonzero;fill:rgb(0%,0%,0%);fill-opacity:1;" d="M 171.609375 57.96875 C 171.609375 59.589844 170.296875 60.910156 168.675781 60.910156 C 167.054688 60.910156 165.738281 59.589844 165.738281 57.96875 C 165.738281 56.34375 167.054688 55.027344 168.675781 55.027344 C 170.296875 55.027344 171.609375 56.34375 171.609375 57.96875 Z M 171.609375 57.96875 "/>
<path style=" stroke:none;fill-rule:nonzero;fill:rgb(0%,0%,0%);fill-opacity:1;" d="M 258.054688 144.570312 C 258.054688 146.191406 256.742188 147.507812 255.121094 147.507812 C 253.5 147.507812 252.183594 146.191406 252.183594 144.570312 C 252.183594 142.945312 253.5 141.628906 255.121094 141.628906 C 256.742188 141.628906 258.054688 142.945312 258.054688 144.570312 Z M 258.054688 144.570312 "/>
<path style=" stroke:none;fill-rule:nonzero;fill:rgb(0%,0%,0%);fill-opacity:1;" d="M 260.992188 67.445312 C 260.992188 69.070312 259.675781 70.386719 258.054688 70.386719 C 256.433594 70.386719 255.121094 69.070312 255.121094 67.445312 C 255.121094 65.820312 256.433594 64.503906 258.054688 64.503906 C 259.675781 64.503906 260.992188 65.820312 260.992188 67.445312 Z M 260.992188 67.445312 "/>
<path style=" stroke:none;fill-rule:nonzero;fill:rgb(0%,0%,0%);fill-opacity:1;" d="M 223.804688 120.386719 C 223.804688 122.011719 222.488281 123.328125 220.867188 123.328125 C 219.246094 123.328125 217.933594 122.011719 217.933594 120.386719 C 217.933594 118.761719 219.246094 117.445312 220.867188 117.445312 C 222.488281 117.445312 223.804688 118.761719 223.804688 120.386719 Z M 223.804688 120.386719 "/>
</g>
</svg>
